<svg xmlns="http://www.w3.org/2000/svg" xmlns:xlink="http://www.w3.org/1999/xlink" viewBox="0 0 1920 1198.58"><defs><style>.cls-1{fill:none;}.cls-2{isolation:isolate;}.cls-3{fill:#fff;}.cls-4,.cls-6,.cls-7,.cls-8{mix-blend-mode:multiply;}.cls-4{fill:url(#radial-gradient);}.cls-5{opacity:0.33;mix-blend-mode:soft-light;}.cls-6,.cls-7,.cls-8{opacity:0.15;}.cls-6{fill:url(#radial-gradient-2);}.cls-7{fill:url(#radial-gradient-3);}.cls-8{fill:url(#radial-gradient-4);}.cls-9{clip-path:url(#clip-path);}.cls-10{opacity:0.43;mix-blend-mode:overlay;fill:url(#linear-gradient);}</style><radialGradient id="radial-gradient" cx="66.55" cy="-26.6" r="1613.01" gradientTransform="translate(0 74.28) scale(1 0.81)" gradientUnits="userSpaceOnUse"><stop offset="0" stop-color="#222431"/><stop offset="1" stop-color="#141a23"/></radialGradient><radialGradient id="radial-gradient-2" cx="63.19" cy="110.09" r="957.76" gradientTransform="matrix(1, 0, 0, 1, 0, 0)" xlink:href="#radial-gradient"/><radialGradient id="radial-gradient-3" cx="63.19" cy="431.22" r="894.2" gradientTransform="matrix(1, 0, 0, 1, 0, 0)" xlink:href="#radial-gradient"/><radialGradient id="radial-gradient-4" cx="935.9" cy="787.07" r="475.45" gradientTransform="matrix(1, 0, 0, 1, 0, 0)" xlink:href="#radial-gradient"/><clipPath id="clip-path"><rect class="cls-1" x="-7.2" y="0.38" width="1043.96" height="991.15"/></clipPath><linearGradient id="linear-gradient" x1="186.88" y1="93.03" x2="460.25" y2="726.39" gradientUnits="userSpaceOnUse"><stop offset="0" stop-color="#9c99a0"/><stop offset="1" stop-color="#141a23" stop-opacity="0"/></linearGradient></defs><title>fondo</title><g class="cls-2"><g id="Layer_1" data-name="Layer 1"><rect class="cls-3" x="-4.14" y="0.58" width="1927.61" height="1204.95"/><rect class="cls-4" x="-5.49" y="0.13" width="1929.17" height="1205.06"/><g class="cls-5"><path class="cls-3" d="M63.71,62.26a3.38,3.38,0,1,1-3.37-3.38A3.37,3.37,0,0,1,63.71,62.26Z"/><path class="cls-3" d="M202,62.26a3.38,3.38,0,1,1-3.38-3.38A3.38,3.38,0,0,1,202,62.26Z"/><path class="cls-3" d="M340.26,62.26a3.38,3.38,0,1,1-3.38-3.38A3.38,3.38,0,0,1,340.26,62.26Z"/><path class="cls-3" d="M478.53,62.26a3.38,3.38,0,1,1-3.38-3.38A3.38,3.38,0,0,1,478.53,62.26Z"/><path class="cls-3" d="M616.8,62.26a3.38,3.38,0,1,1-3.38-3.38A3.37,3.37,0,0,1,616.8,62.26Z"/><path class="cls-3" d="M755.07,62.26a3.38,3.38,0,1,1-3.38-3.38A3.37,3.37,0,0,1,755.07,62.26Z"/><path class="cls-3" d="M893.34,62.26A3.38,3.38,0,1,1,890,58.88,3.37,3.37,0,0,1,893.34,62.26Z"/><path class="cls-3" d="M1031.61,62.26a3.38,3.38,0,1,1-3.38-3.38A3.37,3.37,0,0,1,1031.61,62.26Z"/><path class="cls-3" d="M1169.88,62.26a3.38,3.38,0,1,1-3.38-3.38A3.37,3.37,0,0,1,1169.88,62.26Z"/><path class="cls-3" d="M1308.15,62.26a3.38,3.38,0,1,1-3.37-3.38A3.37,3.37,0,0,1,1308.15,62.26Z"/><path class="cls-3" d="M1446.42,62.26a3.38,3.38,0,1,1-3.37-3.38A3.37,3.37,0,0,1,1446.42,62.26Z"/><path class="cls-3" d="M1584.69,62.26a3.38,3.38,0,1,1-3.37-3.38A3.37,3.37,0,0,1,1584.69,62.26Z"/><path class="cls-3" d="M1723,62.26a3.38,3.38,0,1,1-3.37-3.38A3.37,3.37,0,0,1,1723,62.26Z"/><path class="cls-3" d="M1861.23,62.26a3.38,3.38,0,1,1-3.37-3.38A3.37,3.37,0,0,1,1861.23,62.26Z"/><circle class="cls-3" cx="60.34" cy="196.92" r="3.38"/><path class="cls-3" d="M202,196.92a3.38,3.38,0,1,1-3.38-3.38A3.38,3.38,0,0,1,202,196.92Z"/><circle class="cls-3" cx="336.88" cy="196.92" r="3.38"/><circle class="cls-3" cx="475.15" cy="196.92" r="3.38"/><path class="cls-3" d="M616.8,196.92a3.38,3.38,0,1,1-3.38-3.38A3.38,3.38,0,0,1,616.8,196.92Z"/><circle class="cls-3" cx="751.69" cy="196.92" r="3.38"/><path class="cls-3" d="M893.34,196.92a3.38,3.38,0,1,1-3.38-3.38A3.38,3.38,0,0,1,893.34,196.92Z"/><path class="cls-3" d="M1031.61,196.92a3.38,3.38,0,1,1-3.38-3.38A3.38,3.38,0,0,1,1031.61,196.92Z"/><circle class="cls-3" cx="1166.5" cy="196.92" r="3.38"/><circle class="cls-3" cx="1304.78" cy="196.92" r="3.38"/><circle class="cls-3" cx="1443.05" cy="196.92" r="3.38"/><circle class="cls-3" cx="1581.32" cy="196.92" r="3.38"/><circle class="cls-3" cx="1719.59" cy="196.92" r="3.38"/><circle class="cls-3" cx="1857.86" cy="196.92" r="3.38"/><path class="cls-3" d="M63.71,331.58a3.38,3.38,0,1,1-3.37-3.37A3.37,3.37,0,0,1,63.71,331.58Z"/><path class="cls-3" d="M202,331.58a3.38,3.38,0,1,1-3.38-3.37A3.38,3.38,0,0,1,202,331.58Z"/><path class="cls-3" d="M340.26,331.58a3.38,3.38,0,1,1-3.38-3.37A3.38,3.38,0,0,1,340.26,331.58Z"/><path class="cls-3" d="M478.53,331.58a3.38,3.38,0,1,1-3.38-3.37A3.38,3.38,0,0,1,478.53,331.58Z"/><path class="cls-3" d="M616.8,331.58a3.38,3.38,0,1,1-3.38-3.37A3.38,3.38,0,0,1,616.8,331.58Z"/><path class="cls-3" d="M755.07,331.58a3.38,3.38,0,1,1-3.38-3.37A3.38,3.38,0,0,1,755.07,331.58Z"/><path class="cls-3" d="M893.34,331.58a3.38,3.38,0,1,1-3.38-3.37A3.38,3.38,0,0,1,893.34,331.58Z"/><path class="cls-3" d="M1031.61,331.58a3.38,3.38,0,1,1-3.38-3.37A3.38,3.38,0,0,1,1031.61,331.58Z"/><path class="cls-3" d="M1169.88,331.58a3.38,3.38,0,1,1-3.38-3.37A3.38,3.38,0,0,1,1169.88,331.58Z"/><path class="cls-3" d="M1308.15,331.58a3.38,3.38,0,1,1-3.37-3.37A3.37,3.37,0,0,1,1308.15,331.58Z"/><path class="cls-3" d="M1446.42,331.58a3.38,3.38,0,1,1-3.37-3.37A3.37,3.37,0,0,1,1446.42,331.58Z"/><path class="cls-3" d="M1584.69,331.58a3.38,3.38,0,1,1-3.37-3.37A3.37,3.37,0,0,1,1584.69,331.58Z"/><path class="cls-3" d="M1723,331.58a3.38,3.38,0,1,1-3.37-3.37A3.37,3.37,0,0,1,1723,331.58Z"/><path class="cls-3" d="M1861.23,331.58a3.38,3.38,0,1,1-3.37-3.37A3.37,3.37,0,0,1,1861.23,331.58Z"/><circle class="cls-3" cx="60.34" cy="466.25" r="3.38"/><path class="cls-3" d="M202,466.25a3.38,3.38,0,1,1-3.38-3.38A3.38,3.38,0,0,1,202,466.25Z"/><circle class="cls-3" cx="336.88" cy="466.25" r="3.38"/><circle class="cls-3" cx="475.15" cy="466.25" r="3.38"/><path class="cls-3" d="M616.8,466.25a3.38,3.38,0,1,1-3.38-3.38A3.37,3.37,0,0,1,616.8,466.25Z"/><circle class="cls-3" cx="751.69" cy="466.25" r="3.38"/><path class="cls-3" d="M893.34,466.25a3.38,3.38,0,1,1-3.38-3.38A3.37,3.37,0,0,1,893.34,466.25Z"/><path class="cls-3" d="M1031.61,466.25a3.38,3.38,0,1,1-3.38-3.38A3.37,3.37,0,0,1,1031.61,466.25Z"/><circle class="cls-3" cx="1166.5" cy="466.25" r="3.38"/><circle class="cls-3" cx="1304.78" cy="466.25" r="3.38"/><circle class="cls-3" cx="1443.05" cy="466.25" r="3.38"/><circle class="cls-3" cx="1581.32" cy="466.25" r="3.38"/><circle class="cls-3" cx="1719.59" cy="466.25" r="3.38"/><circle class="cls-3" cx="1857.86" cy="466.25" r="3.38"/><path class="cls-3" d="M63.71,600.91a3.38,3.38,0,1,1-3.37-3.37A3.37,3.37,0,0,1,63.71,600.91Z"/><path class="cls-3" d="M202,600.91a3.38,3.38,0,1,1-3.38-3.37A3.38,3.38,0,0,1,202,600.91Z"/><path class="cls-3" d="M340.26,600.91a3.38,3.38,0,1,1-3.38-3.37A3.38,3.38,0,0,1,340.26,600.91Z"/><path class="cls-3" d="M478.53,600.91a3.38,3.38,0,1,1-3.38-3.37A3.38,3.38,0,0,1,478.53,600.91Z"/><path class="cls-3" d="M616.8,600.91a3.38,3.38,0,1,1-3.38-3.37A3.38,3.38,0,0,1,616.8,600.91Z"/><path class="cls-3" d="M755.07,600.91a3.38,3.38,0,1,1-3.38-3.37A3.38,3.38,0,0,1,755.07,600.91Z"/><path class="cls-3" d="M893.34,600.91a3.38,3.38,0,1,1-3.38-3.37A3.38,3.38,0,0,1,893.34,600.91Z"/><path class="cls-3" d="M1031.61,600.91a3.38,3.38,0,1,1-3.38-3.37A3.38,3.38,0,0,1,1031.61,600.91Z"/><path class="cls-3" d="M1169.88,600.91a3.38,3.38,0,1,1-3.38-3.37A3.38,3.38,0,0,1,1169.88,600.91Z"/><path class="cls-3" d="M1308.15,600.91a3.38,3.38,0,1,1-3.37-3.37A3.37,3.37,0,0,1,1308.15,600.91Z"/><path class="cls-3" d="M1446.42,600.91a3.38,3.38,0,1,1-3.37-3.37A3.37,3.37,0,0,1,1446.42,600.91Z"/><path class="cls-3" d="M1584.69,600.91a3.38,3.38,0,1,1-3.37-3.37A3.37,3.37,0,0,1,1584.69,600.91Z"/><path class="cls-3" d="M1723,600.91a3.38,3.38,0,1,1-3.37-3.37A3.37,3.37,0,0,1,1723,600.91Z"/><path class="cls-3" d="M1861.23,600.91a3.38,3.38,0,1,1-3.37-3.37A3.37,3.37,0,0,1,1861.23,600.91Z"/><circle class="cls-3" cx="60.34" cy="735.58" r="3.38"/><path class="cls-3" d="M202,735.58a3.38,3.38,0,1,1-3.38-3.38A3.38,3.38,0,0,1,202,735.58Z"/><circle class="cls-3" cx="336.88" cy="735.58" r="3.38"/><circle class="cls-3" cx="475.15" cy="735.58" r="3.38"/><path class="cls-3" d="M616.8,735.58a3.38,3.38,0,1,1-3.38-3.38A3.37,3.37,0,0,1,616.8,735.58Z"/><circle class="cls-3" cx="751.69" cy="735.58" r="3.38"/><path class="cls-3" d="M893.34,735.58A3.38,3.38,0,1,1,890,732.2,3.37,3.37,0,0,1,893.34,735.58Z"/><path class="cls-3" d="M1031.61,735.58a3.38,3.38,0,1,1-3.38-3.38A3.37,3.37,0,0,1,1031.61,735.58Z"/><circle class="cls-3" cx="1166.5" cy="735.58" r="3.38"/><circle class="cls-3" cx="1304.78" cy="735.58" r="3.38"/><circle class="cls-3" cx="1443.05" cy="735.58" r="3.38"/><circle class="cls-3" cx="1581.32" cy="735.58" r="3.38"/><circle class="cls-3" cx="1719.59" cy="735.58" r="3.38"/><circle class="cls-3" cx="1857.86" cy="735.58" r="3.38"/><path class="cls-3" d="M63.71,870.24a3.38,3.38,0,1,1-3.37-3.38A3.38,3.38,0,0,1,63.71,870.24Z"/><path class="cls-3" d="M202,870.24a3.38,3.38,0,1,1-3.38-3.38A3.39,3.39,0,0,1,202,870.24Z"/><path class="cls-3" d="M340.26,870.24a3.38,3.38,0,1,1-3.38-3.38A3.39,3.39,0,0,1,340.26,870.24Z"/><path class="cls-3" d="M478.53,870.24a3.38,3.38,0,1,1-3.38-3.38A3.39,3.39,0,0,1,478.53,870.24Z"/><path class="cls-3" d="M616.8,870.24a3.38,3.38,0,1,1-3.38-3.38A3.38,3.38,0,0,1,616.8,870.24Z"/><path class="cls-3" d="M755.07,870.24a3.38,3.38,0,1,1-3.38-3.38A3.38,3.38,0,0,1,755.07,870.24Z"/><path class="cls-3" d="M893.34,870.24a3.38,3.38,0,1,1-3.38-3.38A3.38,3.38,0,0,1,893.34,870.24Z"/><path class="cls-3" d="M1031.61,870.24a3.38,3.38,0,1,1-3.38-3.38A3.38,3.38,0,0,1,1031.61,870.24Z"/><path class="cls-3" d="M1169.88,870.24a3.38,3.38,0,1,1-3.38-3.38A3.38,3.38,0,0,1,1169.88,870.24Z"/><path class="cls-3" d="M1308.15,870.24a3.38,3.38,0,1,1-3.37-3.38A3.38,3.38,0,0,1,1308.15,870.24Z"/><path class="cls-3" d="M1446.42,870.24a3.38,3.38,0,1,1-3.37-3.38A3.38,3.38,0,0,1,1446.42,870.24Z"/><path class="cls-3" d="M1584.69,870.24a3.38,3.38,0,1,1-3.37-3.38A3.38,3.38,0,0,1,1584.69,870.24Z"/><path class="cls-3" d="M1723,870.24a3.38,3.38,0,1,1-3.37-3.38A3.38,3.38,0,0,1,1723,870.24Z"/><path class="cls-3" d="M1861.23,870.24a3.38,3.38,0,1,1-3.37-3.38A3.38,3.38,0,0,1,1861.23,870.24Z"/><circle class="cls-3" cx="60.34" cy="1004.9" r="3.38"/><path class="cls-3" d="M202,1004.9a3.38,3.38,0,1,1-3.38-3.37A3.38,3.38,0,0,1,202,1004.9Z"/><circle class="cls-3" cx="336.88" cy="1004.9" r="3.38"/><circle class="cls-3" cx="475.15" cy="1004.9" r="3.38"/><path class="cls-3" d="M616.8,1004.9a3.38,3.38,0,1,1-3.38-3.37A3.38,3.38,0,0,1,616.8,1004.9Z"/><circle class="cls-3" cx="751.69" cy="1004.9" r="3.38"/><path class="cls-3" d="M893.34,1004.9a3.38,3.38,0,1,1-3.38-3.37A3.38,3.38,0,0,1,893.34,1004.9Z"/><path class="cls-3" d="M1031.61,1004.9a3.38,3.38,0,1,1-3.38-3.37A3.38,3.38,0,0,1,1031.61,1004.9Z"/><circle class="cls-3" cx="1166.5" cy="1004.9" r="3.38"/><circle class="cls-3" cx="1304.78" cy="1004.9" r="3.38"/><circle class="cls-3" cx="1443.05" cy="1004.9" r="3.38"/><circle class="cls-3" cx="1581.32" cy="1004.9" r="3.38"/><circle class="cls-3" cx="1719.59" cy="1004.9" r="3.38"/><circle class="cls-3" cx="1857.86" cy="1004.9" r="3.38"/><circle class="cls-3" cx="60.34" cy="1139.57" r="3.38"/><path class="cls-3" d="M202,1139.57a3.38,3.38,0,1,1-3.38-3.38A3.38,3.38,0,0,1,202,1139.57Z"/><circle class="cls-3" cx="336.88" cy="1139.57" r="3.38"/><circle class="cls-3" cx="475.15" cy="1139.57" r="3.38"/><path class="cls-3" d="M616.8,1139.57a3.38,3.38,0,1,1-3.38-3.38A3.37,3.37,0,0,1,616.8,1139.57Z"/><circle class="cls-3" cx="751.69" cy="1139.57" r="3.38"/><path class="cls-3" d="M893.34,1139.57a3.38,3.38,0,1,1-3.38-3.38A3.37,3.37,0,0,1,893.34,1139.57Z"/><path class="cls-3" d="M1031.61,1139.57a3.38,3.38,0,1,1-3.38-3.38A3.37,3.37,0,0,1,1031.61,1139.57Z"/><circle class="cls-3" cx="1166.5" cy="1139.57" r="3.38"/><circle class="cls-3" cx="1304.78" cy="1139.57" r="3.38"/><circle class="cls-3" cx="1443.05" cy="1139.57" r="3.38"/><circle class="cls-3" cx="1581.32" cy="1139.57" r="3.38"/><circle class="cls-3" cx="1719.59" cy="1139.57" r="3.38"/><circle class="cls-3" cx="1857.86" cy="1139.57" r="3.38"/></g><path class="cls-6" d="M-6.54,634.83s628.13,84,1043.35-203.45,757-354.54,887.93-354.54V1203.76H-6.2Z"/><path class="cls-7" d="M-6.54,965.7s628.13,84,1043.35-203.45,757-354.54,887.93-354.54v796.75H-6.2Z"/><path class="cls-8" d="M899,1206.83a979.35,979.35,0,0,0,135.18-78c415.22-287.46,757-354.53,887.93-354.53v430.15Z"/><g class="cls-9"><path class="cls-10" d="M585.33,100.64l-23.18-76.9L481.87,3.21,259.1,238.11-53.43,166l-57.23,60.58,22.79,75.62L228,376.1l92.71,307.57,81.05,23.1,53.9-62.38-93.1-308.85ZM244.54,185.18l56-60.2L242.93-66,161.25-81.89,108-26.69l58.72,194.8ZM92.77,395.89-20.79,515.4,2.77,593.58l82.46,18.48,122-133.24L188.31,416ZM649.33,317.6l-164.8-41.19-65.93,68.8,19.7,65.36,179.54,43.74,54.67-59.81Zm42.33-434L113.76-249.31-294.58,186.18l170.19,564.65,583.28,133L863.33,453.1ZM421.71,763.67-37.66,658.88l-134-444.69,321.6-343L605-24.13l135.2,448.54Z"/></g></g></g></svg>