<svg id="Layer_1" data-name="Layer 1" xmlns="http://www.w3.org/2000/svg" viewBox="0 0 425.66 285.57"><defs><style>.cls-111{fill:#f4b919;}</style></defs><title>logo canasta</title><polygon class="cls-111" points="211.24 39.57 203.57 43.87 203.57 67.2 211.55 71.66 219.69 66.9 219.69 44.02 211.24 39.57"/><polygon class="cls-111" points="225.37 102.82 225.37 94.99 234.88 89.62 251.62 99.59 251.62 108.8 243.63 113.56 225.37 102.82"/><polygon class="cls-111" points="187.91 89.77 197.74 95.14 197.74 102.66 179.93 113.25 171.49 108.5 171.49 99.13 187.91 89.77"/><polygon class="cls-111" points="171.18 73.5 171.18 64.44 179.47 59.68 211.4 77.95 243.63 59.53 251.77 64.44 251.77 73.65 219.53 92.07 219.53 129.07 211.55 134.13 203.42 128.91 203.42 92.07 171.18 73.5"/><path class="cls-111" d="M211.57,19.62l-59.25,34.3v67.63L212,155.47l58.67-33.92V53.34Zm46.49,94.71L211.86,141l-47-26.71V61.06l46.66-27L258.06,60.6Z"/><path class="cls-111" d="M32.29,266.78H27.88V255.44h4.27c2,0,3.34,1.13,3.34,3A2.6,2.6,0,0,1,33.82,261a2.75,2.75,0,0,1,1.85,2.69C35.67,265.7,34.3,266.78,32.29,266.78Zm-.24-10.25h-3v3.93h3c1.26,0,2.23-.62,2.23-2S33.31,256.53,32.05,256.53Zm.13,5H29.09v4.16h3.09a2.09,2.09,0,1,0,0-4.16Z"/><path class="cls-111" d="M48.4,266.78V255.44h1.21v11.34Z"/><path class="cls-111" d="M70,266.78l-6-9.09v9.09H62.77V255.44h1.14l6,9.06v-9.06h1.21v11.34Z"/><path class="cls-111" d="M90.92,266.78,90,264.22h-5l-.91,2.56H82.86L87,255.44h1l4.15,11.34Zm-3.36-9.6-2.14,6h4.24Z"/><path class="cls-111" d="M111.14,266.78l-6-9.09v9.09h-1.21V255.44h1.14l6,9.06v-9.06h1.21v11.34Z"/><path class="cls-111" d="M129,266.87a4.06,4.06,0,0,1-2.9-1.17c-1.06-1.07-1.06-2.19-1.06-4.59s0-3.52,1.06-4.58a4,4,0,0,1,2.9-1.18,3.82,3.82,0,0,1,3.93,3.37h-1.24a2.67,2.67,0,0,0-2.69-2.29,2.73,2.73,0,0,0-2,.8c-.71.73-.8,1.51-.8,3.88s.09,3.15.8,3.88a2.77,2.77,0,0,0,4.68-1.49h1.21A3.82,3.82,0,0,1,129,266.87Z"/><path class="cls-111" d="M145.48,266.78V255.44h7v1.09h-5.82v4h5v1.09h-5v4.09h5.82v1.08Z"/><path class="cls-111" d="M186,266.78l-6-9.09v9.09h-1.21V255.44h1.14l6,9.06v-9.06h1.21v11.34Z"/><path class="cls-111" d="M206.9,266.78l-.91-2.56h-5l-.9,2.56h-1.29L203,255.44h1l4.15,11.34Zm-3.35-9.6-2.14,6h4.23Z"/><path class="cls-111" d="M228.41,266.78v-8.61L225.3,265h-1l-3.15-6.82v8.61H219.9V255.44h1.22l3.69,8,3.6-8h1.21v11.34Z"/><path class="cls-111" d="M242.78,266.78V255.44h7v1.09H244v4h5v1.09h-5v4.09h5.83v1.08Z"/><path class="cls-111" d="M279,266.87a5,5,0,0,1-3.88-1.49l.83-.83a3.89,3.89,0,0,0,3.09,1.24c1.65,0,2.67-.78,2.67-2.1a1.85,1.85,0,0,0-.54-1.42,2.52,2.52,0,0,0-1.48-.54l-1.32-.21a4.13,4.13,0,0,1-2.09-.85,2.69,2.69,0,0,1-.86-2.12c0-1.93,1.39-3.2,3.63-3.2a4.58,4.58,0,0,1,3.38,1.24l-.78.78a3.58,3.58,0,0,0-2.65-1,2.09,2.09,0,0,0-2.38,2.1,1.65,1.65,0,0,0,.51,1.31,3.29,3.29,0,0,0,1.52.62l1.24.19a3.65,3.65,0,0,1,2.07.79,2.86,2.86,0,0,1,1,2.25C282.89,265.65,281.33,266.87,279,266.87Z"/><path class="cls-111" d="M295.3,266.78V255.44h7v1.09h-5.83v4h5v1.09h-5v4.09h5.83v1.08Z"/><path class="cls-111" d="M321.25,266.78l-2.58-5H316v5h-1.21V255.44h4.34a3.07,3.07,0,0,1,3.36,3.16,3,3,0,0,1-2.46,3l2.69,5.14ZM319,256.53h-3v4.15h3a2.08,2.08,0,1,0,0-4.15Z"/><path class="cls-111" d="M338.27,266.78h-1l-3.73-11.34h1.28l2.94,9.17,3-9.17H342Z"/><path class="cls-111" d="M353.64,266.78V255.44h1.21v11.34Z"/><path class="cls-111" d="M371.54,266.87a4,4,0,0,1-2.89-1.17c-1.07-1.07-1.07-2.19-1.07-4.59s0-3.52,1.07-4.58a4,4,0,0,1,2.89-1.18,3.82,3.82,0,0,1,3.93,3.37h-1.24a2.67,2.67,0,0,0-2.69-2.29,2.74,2.74,0,0,0-2,.8c-.71.73-.79,1.51-.79,3.88s.08,3.15.79,3.88a2.78,2.78,0,0,0,4.69-1.49h1.2A3.81,3.81,0,0,1,371.54,266.87Z"/><path class="cls-111" d="M388,266.78V255.44h7v1.09h-5.83v4h5v1.09h-5v4.09h5.83v1.08Z"/><path class="cls-111" d="M17.42,213.46v-.15c0-15.81,12.17-28.21,28.6-28.21,11.08,0,18.21,4.65,23,11.32l-11.31,8.75c-3.1-3.87-6.66-6.35-11.86-6.35-7.59,0-12.94,6.43-12.94,14.33v.16c0,8.14,5.35,14.49,12.94,14.49,5.66,0,9-2.63,12.25-6.59l11.31,8.06c-5.11,7.06-12,12.25-24,12.25A27.55,27.55,0,0,1,17.42,213.46Z"/><path class="cls-111" d="M128.71,240.82H111.89L99.57,206.49,87.25,240.82H70.74l22-54.63h14Z"/><path class="cls-111" d="M134,186.19h14l22.32,28.67V186.19H185.2v54.24H172l-23.17-29.75v29.75H134Z"/><path class="cls-111" d="M248.44,240.82H231.62L219.3,206.49,207,240.82H190.47l22-54.63h14Z"/><path class="cls-111" d="M247.67,232.37l8.37-10a28,28,0,0,0,17.59,6.51c4,0,6.2-1.4,6.2-3.72V225c0-2.25-1.78-3.49-9.14-5.19-11.55-2.64-20.46-5.89-20.46-17v-.15c0-10.08,8-17.36,21-17.36,9.22,0,16.43,2.48,22.32,7.2L286,203.08c-5-3.49-10.38-5.35-15.19-5.35-3.64,0-5.42,1.55-5.42,3.49v.16c0,2.48,1.86,3.56,9.37,5.27,12.48,2.71,20.23,6.74,20.23,16.89v.15c0,11.09-8.76,17.67-21.93,17.67C263.48,241.36,254.34,238.34,247.67,232.37Z"/><path class="cls-111" d="M314,199.36H297.73V186.19h47.58v13.17H329v41.07H314Z"/><path class="cls-111" d="M405.53,240.82H388.71l-12.32-34.33-12.32,34.33H347.56l22-54.63h13.95Z"/></svg>