<svg width="1003" height="1004" viewBox="0 0 1003 1004" fill="none" xmlns="http://www.w3.org/2000/svg">
<path opacity="0.7" d="M950.247 539.926C951.208 527.852 951.717 515.68 951.717 503.567C951.717 278.467 786.234 88.3827 564.895 56.6857C562.764 40.9777 555.008 26.5759 543.065 16.1518C531.123 5.72767 515.805 -0.0110969 499.953 1.61098e-05C484.101 0.0111291 468.791 5.77137 456.864 16.2122C444.936 26.653 437.2 41.0657 435.09 56.7767C327.768 72.4333 229.668 126.197 158.727 208.236C87.7855 290.276 48.7443 395.11 48.7422 503.568C48.7422 514.983 49.2073 526.456 50.0623 537.851C33.3711 541.9 18.9381 552.343 9.87138 566.93C0.804657 581.518 -2.17043 599.082 1.58695 615.842C5.34434 632.601 15.5336 647.214 29.9602 656.534C44.3869 665.854 61.8969 669.136 78.7193 665.672C107.654 740.761 156.112 806.763 219.088 856.859C282.064 906.956 357.273 939.33 436.945 950.637C439.783 965.658 447.786 979.213 459.568 988.954C471.35 998.695 486.168 1004.01 501.455 1003.97C516.742 1003.93 531.535 998.552 543.27 988.756C555.006 978.959 562.945 965.366 565.711 950.332C644.607 938.736 719.031 906.472 781.427 856.815C843.822 807.159 891.969 741.877 920.979 667.598C929.443 669.748 938.25 670.184 946.885 668.881C955.519 667.579 963.806 664.563 971.258 660.011C978.71 655.459 985.176 649.464 990.278 642.377C995.379 635.29 999.012 627.255 1000.96 618.743C1002.91 610.232 1003.14 601.416 1001.64 592.815C1000.14 584.214 996.926 576 992.201 568.656C987.476 561.313 981.33 554.989 974.126 550.055C966.921 545.121 958.803 541.677 950.248 539.926H950.247ZM562.761 84.2517C769.661 114.774 924.145 292.822 924.145 503.568C924.145 515.795 923.612 528.09 922.573 540.255C907.651 543.677 894.395 552.209 885.098 564.374L641.498 450.748L512.834 253.194V129.742C524.494 127.387 535.296 121.912 544.088 113.901C552.881 105.89 559.335 95.6424 562.761 84.2517V84.2517ZM599.998 459.708L512.834 506.543V419.05L599.998 459.708ZM512.834 390.732V300.219L597.506 430.226L512.834 390.732ZM499.999 25.6647C507.879 25.6651 515.582 28.0021 522.134 32.3804C528.686 36.7586 533.792 42.9813 536.807 50.2617C539.822 57.542 540.611 65.5529 539.073 73.2814C537.536 81.0099 533.741 88.1089 528.169 93.6806C522.596 99.2524 515.497 103.047 507.768 104.584C500.039 106.12 492.029 105.331 484.749 102.315C477.469 99.2992 471.246 94.1922 466.869 87.64C462.491 81.0878 460.155 73.3847 460.155 65.5047C460.167 54.9414 464.369 44.8143 471.839 37.3452C479.309 29.8761 489.436 25.6751 499.999 25.6637V25.6647ZM185.13 219.989C250.851 146.839 340.001 98.867 437.255 84.3187C440.691 95.6936 447.146 105.924 455.934 113.922C464.721 121.92 475.513 127.386 487.16 129.738V247.558C486.636 248.15 486.167 248.789 485.76 249.468L364.71 449.959L120.81 566.531C116.007 558.942 109.698 552.42 102.274 547.368C94.8496 542.315 86.4676 538.839 77.6463 537.156C76.7723 525.998 76.3113 514.756 76.3113 503.568C76.2304 398.83 115.005 297.786 185.13 219.989V219.989ZM406.848 429.819L487.165 296.791V391.429L406.848 429.819ZM487.165 419.876V507.102L398.665 462.174L487.165 419.876ZM65.4722 641.351C57.5922 641.351 49.8892 639.014 43.3372 634.636C36.7852 630.258 31.6786 624.036 28.6631 616.755C25.6476 609.475 24.8586 601.464 26.396 593.736C27.9334 586.007 31.728 578.908 37.3001 573.336C42.8722 567.764 49.9716 563.969 57.7002 562.432C65.4289 560.895 73.4396 561.684 80.7198 564.7C87.9999 567.715 94.2224 572.822 98.6001 579.374C102.978 585.927 105.314 593.63 105.314 601.51C105.302 612.073 101.101 622.2 93.6316 629.669C86.1624 637.138 76.0352 641.339 65.4722 641.351V641.351ZM501.302 978.307C493.423 978.307 485.72 975.971 479.168 971.594C472.615 967.217 467.508 960.995 464.492 953.715C461.476 946.436 460.687 938.425 462.223 930.696C463.76 922.968 467.554 915.869 473.125 910.296C478.696 904.724 485.795 900.929 493.523 899.391C501.251 897.853 509.262 898.641 516.542 901.656C523.823 904.671 530.045 909.777 534.424 916.328C538.802 922.879 541.14 930.582 541.14 938.462C541.128 949.024 536.927 959.151 529.459 966.62C521.991 974.09 511.865 978.292 501.302 978.307V978.307ZM488.468 708.459L406.8 578.299L488.468 615.61V708.459ZM766.195 833.685C708.119 880.594 638.644 911.265 564.85 922.574C561.819 910.551 555.448 899.632 546.473 891.077C537.499 882.522 526.287 876.68 514.133 874.228V753.375L646.671 551.975C648.206 549.643 648.938 546.875 648.757 544.091C648.577 541.306 647.493 538.655 645.671 536.542C643.848 534.428 641.387 532.966 638.659 532.377C635.931 531.789 633.085 532.105 630.553 533.28L501.26 593.239L378.483 537.149C375.972 536.001 373.158 535.694 370.458 536.273C367.758 536.852 365.318 538.287 363.498 540.364C361.679 542.441 360.578 545.049 360.359 547.801C360.14 550.554 360.815 553.303 362.283 555.642L487.177 754.69C487.559 755.298 487.991 755.874 488.467 756.412V874.228C476.26 876.691 465.005 882.574 456.013 891.189C447.021 899.805 440.663 910.798 437.679 922.889C363.249 911.756 293.119 881.031 234.477 833.862C175.835 786.694 130.792 724.779 103.965 654.465C113.846 647.312 121.527 637.535 126.137 626.241C130.746 614.948 132.101 602.589 130.047 590.565L369.464 476.131L494.189 539.449C494.342 539.524 494.501 539.579 494.657 539.649C494.869 539.749 495.079 539.841 495.297 539.928C495.597 540.048 495.911 540.149 496.224 540.246C496.424 540.305 496.624 540.373 496.824 540.425C497.175 540.516 497.524 540.578 497.88 540.639C498.058 540.668 498.231 540.707 498.409 540.73C498.893 540.792 499.38 540.825 499.867 540.83C499.916 540.83 499.967 540.84 500.013 540.84C500.572 540.838 501.129 540.799 501.682 540.723C501.812 540.707 501.939 540.674 502.072 540.652C502.489 540.587 502.902 540.501 503.31 540.395C503.502 540.343 503.687 540.278 503.875 540.216C504.216 540.109 504.554 539.995 504.888 539.855C505.103 539.767 505.314 539.663 505.525 539.563C505.71 539.475 505.895 539.407 506.077 539.31L629.025 473.247L873.786 587.419C870.553 599.678 870.952 612.612 874.934 624.649C878.916 636.686 886.31 647.307 896.216 655.219C869.375 725.134 824.518 786.705 766.195 833.685V833.685ZM514.133 706.685V615.559L600.446 575.529L514.133 706.685ZM937.133 643.949C929.253 643.949 921.55 641.612 914.998 637.234C908.446 632.856 903.34 626.634 900.324 619.354C897.308 612.073 896.52 604.062 898.057 596.334C899.594 588.605 903.389 581.506 908.961 575.934C914.533 570.362 921.632 566.568 929.361 565.03C937.089 563.493 945.1 564.282 952.38 567.297C959.66 570.313 965.883 575.42 970.261 581.972C974.639 588.524 976.975 596.227 976.975 604.107C976.965 614.671 972.763 624.8 965.293 632.27C957.823 639.74 947.694 643.942 937.129 643.953L937.133 643.949ZM575.772 171.5C647.349 187.946 711.742 226.969 759.445 282.809C807.887 339.294 836.276 410.221 840.184 484.531C840.377 488.048 841.909 491.359 844.466 493.782C847.023 496.205 850.412 497.557 853.934 497.56C854.191 497.56 854.447 497.56 854.704 497.54C856.512 497.441 858.283 496.986 859.915 496.203C861.548 495.419 863.01 494.322 864.218 492.973C865.426 491.625 866.357 490.051 866.957 488.343C867.557 486.634 867.814 484.825 867.714 483.017C863.494 402.675 832.803 325.988 780.43 264.917C729.103 204.708 658.583 161.979 581.859 144.603C578.304 143.825 574.586 144.485 571.515 146.438C568.444 148.391 566.27 151.478 565.467 155.028C564.664 158.577 565.296 162.3 567.227 165.385C569.157 168.47 572.229 170.666 575.772 171.496V171.5ZM831.02 631.391C829.359 630.671 827.572 630.286 825.761 630.258C823.951 630.229 822.152 630.558 820.469 631.225C818.785 631.892 817.25 632.884 815.95 634.145C814.651 635.406 813.612 636.91 812.894 638.573C791.176 688.848 757.655 733.145 715.174 767.709C672.693 802.273 622.504 826.084 568.862 837.124C567.089 837.487 565.404 838.196 563.904 839.21C562.404 840.224 561.119 841.524 560.121 843.035C559.124 844.546 558.434 846.238 558.09 848.016C557.747 849.793 557.757 851.621 558.12 853.395C558.483 855.169 559.192 856.854 560.206 858.354C561.22 859.853 562.52 861.139 564.031 862.136C565.542 863.134 567.234 863.824 569.012 864.167C570.79 864.511 572.618 864.501 574.391 864.138C632.379 852.209 686.635 826.473 732.56 789.112C778.484 751.75 814.722 703.866 838.2 649.519C838.92 647.857 839.305 646.07 839.333 644.259C839.362 642.449 839.033 640.65 838.367 638.967C837.7 637.283 836.708 635.748 835.447 634.448C834.187 633.148 832.682 632.109 831.02 631.391V631.391ZM181.72 624.134C181.079 622.441 180.11 620.89 178.87 619.572C177.629 618.253 176.141 617.191 174.491 616.447C172.84 615.704 171.059 615.292 169.249 615.237C167.439 615.182 165.637 615.483 163.943 616.125C162.25 616.766 160.7 617.735 159.381 618.975C158.062 620.216 157.001 621.704 156.257 623.354C155.513 625.005 155.102 626.786 155.047 628.596C154.991 630.406 155.293 632.209 155.934 633.902C177.539 690.813 212.898 741.491 258.855 781.412C304.811 821.332 359.937 849.254 419.311 862.686C422.858 863.432 426.556 862.752 429.605 860.793C432.654 858.833 434.808 855.751 435.602 852.215C436.396 848.679 435.766 844.972 433.847 841.897C431.928 838.822 428.876 836.627 425.35 835.786C370.429 823.353 319.438 797.52 276.928 760.589C234.417 723.659 201.709 676.781 181.72 624.137V624.134ZM145.974 517.356C147.785 517.356 149.578 516.999 151.251 516.306C152.924 515.613 154.443 514.597 155.723 513.317C157.004 512.036 158.019 510.516 158.712 508.843C159.404 507.17 159.761 505.377 159.76 503.567C159.51 428.465 184.335 355.429 230.3 296.037C275.224 237.83 337.673 195.611 408.428 175.613C411.93 174.611 414.893 172.265 416.671 169.087C418.449 165.908 418.898 162.155 417.918 158.647C416.938 155.139 414.61 152.161 411.442 150.364C408.274 148.566 404.524 148.095 401.01 149.054C325.149 170.243 256.768 216.468 208.451 279.214C158.56 344.014 132.189 421.591 132.189 503.568C132.188 507.224 133.64 510.73 136.224 513.316C138.809 515.902 142.314 517.355 145.97 517.357L145.974 517.356Z" fill="#131213"/>
</svg>
