<svg width="523" height="601" viewBox="0 0 523 601" fill="none" xmlns="http://www.w3.org/2000/svg">
<path d="M520.324 244.147C521.99 243.188 523 241.422 523 239.504V152.6C523 150.682 521.965 148.916 520.324 147.957L445.051 104.505C443.385 103.546 441.34 103.546 439.674 104.505L367.607 146.115L341.304 130.924V48.8143C341.304 46.8965 340.269 45.1302 338.629 44.1713L263.33 0.719156C261.664 -0.239719 259.619 -0.239719 257.953 0.719156L182.705 44.1713C181.039 45.1302 180.03 46.8965 180.03 48.8143V131.908L153.929 146.973L83.3256 106.221C81.6596 105.262 79.6149 105.262 77.9489 106.221L2.67571 149.673C1.03494 150.632 0 152.398 0 154.316V241.195C0 243.113 1.03494 244.879 2.67571 245.838L72.749 286.287V315.861L2.67571 356.31C1.03494 357.269 0 359.035 0 360.953V447.832C0 449.75 1.03494 451.516 2.67571 452.475L77.9489 495.927C79.6149 496.886 81.6596 496.886 83.3256 495.927L151.026 456.841L180.004 473.571V552.173C180.004 554.091 181.039 555.857 182.68 556.816L257.953 600.268C258.786 600.748 259.72 601 260.629 601C261.538 601 262.472 600.773 263.305 600.268L338.578 556.816C340.244 555.857 341.254 554.091 341.254 552.173V474.529L370.434 457.699L439.624 497.643C441.29 498.602 443.335 498.602 445.001 497.643L520.324 454.216C521.99 453.258 523 451.491 523 449.573V362.694C523 360.777 521.965 359.01 520.324 358.051L450.251 317.602V284.571L520.324 244.147ZM72.749 203.95V268.069L15.7766 235.189V171.071L72.749 203.95ZM138.127 156.082L79.7412 189.769L22.2639 156.587L80.6499 122.9L138.127 156.082ZM72.749 410.588V474.706L15.7766 441.827V377.708L72.749 410.588ZM72.749 334.105V392.394L22.2639 363.25L72.749 334.105ZM450.251 476.447V412.329L507.223 379.449V443.568L450.251 476.447ZM450.251 394.11V335.821L500.736 364.965L450.251 394.11ZM442.35 188.583L383.964 154.896L442.35 121.209L500.736 154.896L442.35 188.583ZM507.223 169.355V233.473L450.251 266.353V202.234L507.223 169.355ZM377.502 233.473V170.036L434.474 202.916V266.353L377.502 233.473ZM260.654 501.302L202.268 467.59L260.654 433.903L319.04 467.59L260.654 501.302ZM268.555 579.072V516.543L325.528 483.664V546.193L268.555 579.072ZM195.806 546.193V482.705L252.779 515.584V579.072L195.806 546.193ZM195.806 331.556V272.964L245.585 302.815L195.806 331.556ZM252.753 316.895V371.324L205.6 344.097L252.753 316.895ZM203.455 259.161L260.654 226.156L319.04 259.842L260.73 293.504L203.455 259.161ZM316.567 343.643L268.555 371.349V315.937L316.567 343.643ZM276.784 302.462L325.502 274.326V330.572L276.784 302.462ZM185.936 458.809L161.275 444.577V369.709L189.824 353.232L257.979 392.571C259.645 393.53 261.689 393.53 263.355 392.571L332.343 352.752L361.725 369.709V444.577L336.23 459.288L263.355 417.224C262.522 416.745 261.588 416.492 260.68 416.492C259.771 416.492 258.837 416.719 258.004 417.224L185.936 458.809ZM338.603 252.928L263.33 209.476C261.664 208.517 259.619 208.517 257.953 209.476L182.68 252.928C181.014 253.887 180.004 255.654 180.004 257.571V340.665L155.746 354.67L88.5256 315.886V286.312L158.599 245.863C160.265 244.904 161.275 243.138 161.275 241.22V160.927L189.824 144.449L257.979 183.789C259.645 184.747 261.689 184.747 263.355 183.789L332.343 143.97L361.725 160.927V239.479C361.725 241.397 362.76 243.163 364.401 244.122L434.474 284.571V317.602L368.743 355.528L341.304 339.681V257.571C341.304 255.679 340.269 253.887 338.603 252.928ZM276.784 93.7048L325.502 65.5694V121.815L276.784 93.7048ZM268.555 162.567V107.154L316.567 134.861L268.555 162.567ZM195.806 122.799V65.5694L245.357 94.1842L195.806 122.799ZM252.753 108.138V162.592L205.6 135.365L252.753 108.138ZM260.654 84.7973L202.268 51.0853L260.654 17.3985L319.04 51.0853L260.654 84.7973ZM88.5256 268.069V203.95L145.498 171.071V235.189L88.5256 268.069ZM88.5256 392.369V334.08L139.011 363.224L88.5256 392.369ZM135.249 447.757L88.5256 474.706V420.782L135.249 447.757ZM96.4265 407.131L145.498 378.819V435.468L96.4265 407.131ZM426.018 407.459L377.502 435.468V379.449L426.018 407.459ZM434.474 420.807V476.447L386.261 448.615L434.474 420.807ZM434.474 335.821V393.479L384.519 364.663L434.474 335.821Z" fill="#141414" fill-opacity="0.3"/>
</svg>
