<svg width="1920" height="1125" viewBox="0 0 1920 1125" fill="none" xmlns="http://www.w3.org/2000/svg">
<g clip-path="url(#clip0)">
<rect width="1920" height="1125" fill="white"/>
<path style="mix-blend-mode:multiply" d="M1919.99 0.289795H0.527344V1246.12H1919.99V0.289795Z" fill="url(#paint0_radial)"/>
<path style="mix-blend-mode:multiply" opacity="0.15" d="M0.321289 677.928C0.321289 677.928 624.674 761.428 1037.4 475.696C1450.12 189.964 1789.82 123.296 1919.99 123.296V1243.43H0.661377L0.321289 677.928Z" fill="url(#paint1_radial)"/>
<path style="mix-blend-mode:multiply" opacity="0.15" d="M0.321289 1006.81C0.321289 1006.81 624.674 1090.31 1037.4 804.577C1450.12 518.845 1789.82 452.177 1919.99 452.177V1244.13H0.661377L0.321289 1006.81Z" fill="url(#paint2_radial)"/>
<path style="mix-blend-mode:multiply" opacity="0.15" d="M900.381 1246.48C947.162 1224.26 992.093 1198.34 1034.75 1168.96C1447.47 883.234 1787.17 816.564 1917.34 816.564V1244.13L900.381 1246.48Z" fill="url(#paint3_radial)"/>
<path style="mix-blend-mode:overlay" opacity="0.43" d="M519.019 85.5294L488.571 25.2326L419.07 19.9711L268.924 247.133L-0.498446 233.095L-39.0349 291.652L-9.09524 350.945L263.352 365.977L385.142 607.168L455.66 614.442L491.173 554.888L368.874 312.694L519.019 85.5294ZM249.123 205.425L286.655 147.377L211.042 -2.36313L141.051 -3.59494L105.013 49.9166L182.147 202.669L249.123 205.425ZM154.24 402.158L77.666 517.759L108.622 579.062L179.625 582.304L261.186 454.095L236.321 404.857L154.24 402.158ZM603.776 255.877L461.251 245.868L416.705 312.508L442.585 363.76L597.698 373.717L634.222 316.174L603.776 255.877ZM575.337 -109.812L77.2285 -135.326L-197.28 285.135L26.3074 727.91L528.886 752.768L800.856 336.792L575.337 -109.812ZM480.513 658.649L84.6895 639.07L-91.4017 290.35L124.794 -40.792L517.09 -20.6979L694.7 331.039L480.513 658.649Z" fill="url(#paint4_linear)"/>
<g style="mix-blend-mode:soft-light" opacity="0.33">
<g style="mix-blend-mode:soft-light" opacity="0.33">
<g style="mix-blend-mode:soft-light" opacity="0.33">
<path d="M64.0154 90.7818C65.8744 90.7818 67.3814 89.2748 67.3814 87.4158C67.3814 85.5568 65.8744 84.0498 64.0154 84.0498C62.1564 84.0498 60.6494 85.5568 60.6494 87.4158C60.6494 89.2748 62.1564 90.7818 64.0154 90.7818Z" fill="white"/>
</g>
<g style="mix-blend-mode:soft-light" opacity="0.33">
<path d="M205.256 87.4178C205.256 88.0838 205.058 88.7346 204.688 89.2881C204.318 89.8416 203.792 90.2728 203.176 90.5273C202.561 90.7818 201.884 90.848 201.231 90.7177C200.578 90.5874 199.978 90.2664 199.507 89.7952C199.037 89.3241 198.716 88.7239 198.587 88.0707C198.457 87.4175 198.524 86.7406 198.779 86.1255C199.035 85.5104 199.466 84.9848 200.02 84.6152C200.574 84.2455 201.226 84.0484 201.891 84.0488C202.334 84.049 202.771 84.1362 203.18 84.3056C203.588 84.475 203.959 84.7233 204.272 85.0361C204.584 85.349 204.832 85.7204 205.001 86.129C205.17 86.5377 205.257 86.9756 205.256 87.4178Z" fill="white"/>
</g>
<g style="mix-blend-mode:soft-light" opacity="0.33">
<path d="M339.766 90.7818C341.625 90.7818 343.132 89.2748 343.132 87.4158C343.132 85.5568 341.625 84.0498 339.766 84.0498C337.907 84.0498 336.4 85.5568 336.4 87.4158C336.4 89.2748 337.907 90.7818 339.766 90.7818Z" fill="white"/>
</g>
<g style="mix-blend-mode:soft-light" opacity="0.33">
<path d="M477.641 90.7818C479.5 90.7818 481.007 89.2748 481.007 87.4158C481.007 85.5568 479.5 84.0498 477.641 84.0498C475.782 84.0498 474.275 85.5568 474.275 87.4158C474.275 89.2748 475.782 90.7818 477.641 90.7818Z" fill="white"/>
</g>
<g style="mix-blend-mode:soft-light" opacity="0.33">
<path d="M618.887 87.4178C618.887 88.0837 618.689 88.7345 618.319 89.288C617.949 89.8414 617.422 90.2727 616.807 90.5272C616.192 90.7817 615.515 90.848 614.862 90.7178C614.209 90.5876 613.609 90.2667 613.138 89.7956C612.668 89.3245 612.347 88.7245 612.218 88.0714C612.088 87.4182 612.155 86.7413 612.41 86.1262C612.665 85.5111 613.097 84.9854 613.651 84.6156C614.204 84.2459 614.855 84.0486 615.521 84.0488C615.963 84.049 616.402 84.1362 616.81 84.3056C617.219 84.475 617.59 84.7232 617.902 85.0361C618.215 85.3489 618.463 85.7203 618.632 86.129C618.801 86.5376 618.888 86.9756 618.887 87.4178Z" fill="white"/>
</g>
<g style="mix-blend-mode:soft-light" opacity="0.33">
<path d="M753.392 90.7818C755.251 90.7818 756.758 89.2748 756.758 87.4158C756.758 85.5568 755.251 84.0498 753.392 84.0498C751.533 84.0498 750.026 85.5568 750.026 87.4158C750.026 89.2748 751.533 90.7818 753.392 90.7818Z" fill="white"/>
</g>
<g style="mix-blend-mode:soft-light" opacity="0.33">
<path d="M894.632 87.4178C894.632 88.0832 894.434 88.7334 894.063 89.2862C893.693 89.8391 893.167 90.2698 892.552 90.5238C891.937 90.7779 891.261 90.844 890.609 90.7137C889.956 90.5834 889.357 90.2626 888.887 89.7918C888.416 89.3211 888.096 88.7215 887.967 88.0688C887.837 87.4162 887.904 86.7398 888.159 86.1252C888.414 85.5105 888.845 84.9852 889.398 84.6157C889.952 84.2461 890.602 84.0488 891.267 84.0488C891.71 84.049 892.147 84.1362 892.556 84.3056C892.964 84.475 893.335 84.7233 893.648 85.0361C893.96 85.349 894.208 85.7204 894.377 86.129C894.546 86.5377 894.633 86.9756 894.632 87.4178Z" fill="white"/>
</g>
<g style="mix-blend-mode:soft-light" opacity="0.33">
<path d="M1032.51 87.4178C1032.51 88.0836 1032.31 88.7344 1031.94 89.2878C1031.57 89.8412 1031.05 90.2724 1030.43 90.527C1029.82 90.7816 1029.14 90.848 1028.49 90.718C1027.83 90.5879 1027.23 90.2672 1026.76 89.7963C1026.29 89.3254 1025.97 88.7256 1025.84 88.0726C1025.71 87.4196 1025.78 86.7427 1026.03 86.1276C1026.29 85.5124 1026.72 84.9866 1027.27 84.6166C1027.83 84.2466 1028.48 84.049 1029.14 84.0488C1029.58 84.0487 1030.02 84.1358 1030.43 84.305C1030.84 84.4743 1031.21 84.7225 1031.52 85.0354C1031.84 85.3482 1032.09 85.7197 1032.25 86.1285C1032.42 86.5373 1032.51 86.9754 1032.51 87.4178Z" fill="white"/>
</g>
<g style="mix-blend-mode:soft-light" opacity="0.33">
<path d="M1167.02 90.7818C1168.88 90.7818 1170.38 89.2748 1170.38 87.4158C1170.38 85.5568 1168.88 84.0498 1167.02 84.0498C1165.16 84.0498 1163.65 85.5568 1163.65 87.4158C1163.65 89.2748 1165.16 90.7818 1167.02 90.7818Z" fill="white"/>
</g>
<g style="mix-blend-mode:soft-light" opacity="0.33">
<path d="M1304.89 90.7818C1306.75 90.7818 1308.26 89.2748 1308.26 87.4158C1308.26 85.5568 1306.75 84.0498 1304.89 84.0498C1303.03 84.0498 1301.53 85.5568 1301.53 87.4158C1301.53 89.2748 1303.03 90.7818 1304.89 90.7818Z" fill="white"/>
</g>
<g style="mix-blend-mode:soft-light" opacity="0.33">
<path d="M1442.77 90.7818C1444.63 90.7818 1446.13 89.2748 1446.13 87.4158C1446.13 85.5568 1444.63 84.0498 1442.77 84.0498C1440.91 84.0498 1439.4 85.5568 1439.4 87.4158C1439.4 89.2748 1440.91 90.7818 1442.77 90.7818Z" fill="white"/>
</g>
<g style="mix-blend-mode:soft-light" opacity="0.33">
<path d="M1580.64 90.7818C1582.5 90.7818 1584.01 89.2748 1584.01 87.4158C1584.01 85.5568 1582.5 84.0498 1580.64 84.0498C1578.78 84.0498 1577.28 85.5568 1577.28 87.4158C1577.28 89.2748 1578.78 90.7818 1580.64 90.7818Z" fill="white"/>
</g>
<g style="mix-blend-mode:soft-light" opacity="0.33">
<path d="M1718.52 90.7818C1720.38 90.7818 1721.89 89.2748 1721.89 87.4158C1721.89 85.5568 1720.38 84.0498 1718.52 84.0498C1716.66 84.0498 1715.15 85.5568 1715.15 87.4158C1715.15 89.2748 1716.66 90.7818 1718.52 90.7818Z" fill="white"/>
</g>
<g style="mix-blend-mode:soft-light" opacity="0.33">
<path d="M1856.39 90.7818C1858.25 90.7818 1859.76 89.2748 1859.76 87.4158C1859.76 85.5568 1858.25 84.0498 1856.39 84.0498C1854.54 84.0498 1853.03 85.5568 1853.03 87.4158C1853.03 89.2748 1854.54 90.7818 1856.39 90.7818Z" fill="white"/>
</g>
</g>
<g style="mix-blend-mode:soft-light" opacity="0.33">
<g style="mix-blend-mode:soft-light" opacity="0.33">
<path d="M67.3804 221.694C67.3804 222.359 67.183 223.01 66.8133 223.563C66.4436 224.116 65.9181 224.548 65.3033 224.802C64.6885 225.057 64.0119 225.124 63.3592 224.994C62.7065 224.864 62.1069 224.544 61.6363 224.073C61.1656 223.603 60.8451 223.003 60.7152 222.351C60.5852 221.698 60.6518 221.021 60.9063 220.407C61.1608 219.792 61.5918 219.266 62.1451 218.896C62.6983 218.526 63.349 218.329 64.0145 218.329C64.4564 218.328 64.8939 218.415 65.3023 218.584C65.7107 218.754 66.0818 219.001 66.3943 219.314C66.7069 219.626 66.9549 219.997 67.1241 220.406C67.2933 220.814 67.3804 221.252 67.3804 221.694Z" fill="white"/>
</g>
<g style="mix-blend-mode:soft-light" opacity="0.33">
<path d="M205.256 221.694C205.257 222.36 205.06 223.011 204.69 223.565C204.32 224.119 203.794 224.551 203.179 224.806C202.564 225.061 201.886 225.128 201.233 224.998C200.58 224.868 199.98 224.547 199.509 224.076C199.038 223.605 198.717 223.005 198.587 222.352C198.457 221.699 198.524 221.022 198.779 220.406C199.034 219.791 199.466 219.265 200.02 218.895C200.574 218.525 201.225 218.328 201.891 218.329C202.784 218.329 203.639 218.684 204.27 219.315C204.901 219.946 205.256 220.801 205.256 221.694Z" fill="white"/>
</g>
<g style="mix-blend-mode:soft-light" opacity="0.33">
<path d="M343.134 221.694C343.134 222.36 342.937 223.011 342.567 223.565C342.197 224.119 341.672 224.55 341.057 224.806C340.442 225.061 339.764 225.128 339.111 224.998C338.458 224.869 337.858 224.548 337.387 224.078C336.916 223.607 336.595 223.007 336.464 222.354C336.334 221.701 336.401 221.024 336.655 220.408C336.91 219.793 337.341 219.267 337.895 218.897C338.449 218.527 339.099 218.329 339.765 218.329C340.658 218.329 341.514 218.683 342.146 219.314C342.778 219.945 343.133 220.801 343.134 221.694Z" fill="white"/>
</g>
<g style="mix-blend-mode:soft-light" opacity="0.33">
<path d="M481.007 221.694C481.007 222.359 480.81 223.01 480.44 223.563C480.07 224.116 479.545 224.548 478.93 224.802C478.315 225.057 477.639 225.124 476.986 224.994C476.333 224.864 475.734 224.544 475.263 224.073C474.792 223.602 474.472 223.003 474.342 222.35C474.212 221.697 474.279 221.021 474.533 220.406C474.788 219.791 475.22 219.265 475.773 218.896C476.326 218.526 476.977 218.329 477.642 218.329C478.535 218.329 479.39 218.684 480.021 219.315C480.652 219.946 481.007 220.801 481.007 221.694Z" fill="white"/>
</g>
<g style="mix-blend-mode:soft-light" opacity="0.33">
<path d="M618.887 221.694C618.888 222.36 618.691 223.011 618.321 223.565C617.951 224.119 617.425 224.551 616.81 224.806C616.195 225.061 615.518 225.128 614.864 224.998C614.211 224.868 613.611 224.548 613.14 224.077C612.669 223.606 612.348 223.006 612.218 222.353C612.088 221.699 612.155 221.022 612.41 220.407C612.665 219.792 613.096 219.266 613.65 218.896C614.204 218.526 614.855 218.328 615.521 218.329C616.414 218.329 617.27 218.683 617.901 219.314C618.532 219.945 618.887 220.801 618.887 221.694Z" fill="white"/>
</g>
<g style="mix-blend-mode:soft-light" opacity="0.33">
<path d="M756.76 221.694C756.761 222.36 756.564 223.011 756.194 223.565C755.824 224.118 755.299 224.55 754.684 224.806C754.069 225.061 753.392 225.128 752.738 224.998C752.085 224.869 751.485 224.548 751.014 224.078C750.543 223.607 750.222 223.008 750.091 222.354C749.961 221.701 750.027 221.024 750.282 220.409C750.536 219.794 750.968 219.267 751.521 218.897C752.075 218.527 752.726 218.329 753.392 218.329C754.284 218.328 755.141 218.683 755.773 219.314C756.404 219.945 756.76 220.801 756.76 221.694Z" fill="white"/>
</g>
<g style="mix-blend-mode:soft-light" opacity="0.33">
<path d="M894.632 221.694C894.632 222.359 894.435 223.01 894.065 223.563C893.696 224.116 893.17 224.548 892.555 224.802C891.94 225.057 891.264 225.124 890.611 224.994C889.958 224.864 889.358 224.544 888.888 224.073C888.417 223.602 888.097 223.003 887.967 222.35C887.837 221.697 887.904 221.021 888.159 220.406C888.413 219.791 888.844 219.265 889.398 218.896C889.951 218.526 890.602 218.329 891.267 218.329C892.16 218.329 893.015 218.684 893.646 219.315C894.277 219.946 894.632 220.801 894.632 221.694Z" fill="white"/>
</g>
<g style="mix-blend-mode:soft-light" opacity="0.33">
<path d="M1032.51 221.694C1032.51 222.36 1032.31 223.011 1031.94 223.565C1031.57 224.119 1031.05 224.55 1030.43 224.806C1029.82 225.061 1029.14 225.128 1028.49 224.998C1027.83 224.869 1027.23 224.548 1026.76 224.078C1026.29 223.607 1025.97 223.007 1025.84 222.354C1025.71 221.701 1025.78 221.024 1026.03 220.408C1026.29 219.793 1026.72 219.267 1027.27 218.897C1027.83 218.527 1028.48 218.329 1029.14 218.329C1030.04 218.329 1030.89 218.683 1031.52 219.314C1032.15 219.945 1032.51 220.801 1032.51 221.694Z" fill="white"/>
</g>
<g style="mix-blend-mode:soft-light" opacity="0.33">
<path d="M1170.38 221.694C1170.38 222.359 1170.19 223.01 1169.82 223.563C1169.45 224.116 1168.92 224.548 1168.31 224.802C1167.69 225.057 1167.02 225.124 1166.36 224.994C1165.71 224.864 1165.11 224.544 1164.64 224.073C1164.17 223.603 1163.85 223.003 1163.72 222.351C1163.59 221.698 1163.65 221.021 1163.91 220.407C1164.16 219.792 1164.6 219.266 1165.15 218.896C1165.7 218.526 1166.35 218.329 1167.02 218.329C1167.46 218.328 1167.9 218.415 1168.31 218.584C1168.71 218.754 1169.08 219.001 1169.4 219.314C1169.71 219.626 1169.96 219.997 1170.13 220.406C1170.3 220.814 1170.38 221.252 1170.38 221.694Z" fill="white"/>
</g>
<g style="mix-blend-mode:soft-light" opacity="0.33">
<path d="M1308.26 221.694C1308.26 222.36 1308.06 223.011 1307.69 223.565C1307.32 224.119 1306.8 224.551 1306.18 224.806C1305.57 225.061 1304.89 225.128 1304.24 224.998C1303.58 224.868 1302.98 224.547 1302.51 224.076C1302.04 223.605 1301.72 223.005 1301.59 222.352C1301.46 221.699 1301.53 221.022 1301.78 220.406C1302.04 219.791 1302.47 219.265 1303.02 218.895C1303.58 218.525 1304.23 218.328 1304.89 218.329C1305.79 218.329 1306.64 218.684 1307.27 219.315C1307.9 219.946 1308.26 220.801 1308.26 221.694Z" fill="white"/>
</g>
<g style="mix-blend-mode:soft-light" opacity="0.33">
<path d="M1446.14 221.694C1446.14 222.36 1445.94 223.011 1445.57 223.565C1445.2 224.118 1444.67 224.55 1444.06 224.806C1443.44 225.061 1442.77 225.128 1442.11 224.998C1441.46 224.869 1440.86 224.548 1440.39 224.078C1439.92 223.607 1439.6 223.008 1439.47 222.354C1439.34 221.701 1439.4 221.024 1439.66 220.409C1439.91 219.794 1440.34 219.267 1440.9 218.897C1441.45 218.527 1442.1 218.329 1442.77 218.329C1443.66 218.328 1444.52 218.683 1445.15 219.314C1445.78 219.945 1446.13 220.801 1446.14 221.694Z" fill="white"/>
</g>
<g style="mix-blend-mode:soft-light" opacity="0.33">
<path d="M1584.01 221.694C1584.01 222.359 1583.81 223.01 1583.44 223.563C1583.07 224.117 1582.54 224.548 1581.93 224.803C1581.31 225.057 1580.64 225.124 1579.99 224.994C1579.33 224.864 1578.73 224.543 1578.26 224.073C1577.79 223.602 1577.47 223.002 1577.34 222.349C1577.21 221.697 1577.28 221.02 1577.53 220.405C1577.79 219.79 1578.22 219.265 1578.77 218.895C1579.33 218.526 1579.98 218.328 1580.64 218.329C1581.54 218.329 1582.39 218.684 1583.02 219.315C1583.65 219.946 1584.01 220.802 1584.01 221.694Z" fill="white"/>
</g>
<g style="mix-blend-mode:soft-light" opacity="0.33">
<path d="M1721.89 221.694C1721.89 222.36 1721.69 223.011 1721.32 223.565C1720.95 224.119 1720.42 224.551 1719.81 224.806C1719.19 225.061 1718.52 225.128 1717.86 224.998C1717.21 224.868 1716.61 224.548 1716.14 224.077C1715.67 223.606 1715.35 223.006 1715.22 222.353C1715.09 221.699 1715.15 221.022 1715.41 220.407C1715.66 219.792 1716.09 219.266 1716.65 218.896C1717.2 218.526 1717.85 218.328 1718.52 218.329C1719.41 218.329 1720.27 218.683 1720.9 219.314C1721.53 219.945 1721.88 220.801 1721.89 221.694Z" fill="white"/>
</g>
<g style="mix-blend-mode:soft-light" opacity="0.33">
<path d="M1859.76 221.694C1859.76 222.36 1859.57 223.011 1859.2 223.564C1858.83 224.118 1858.3 224.55 1857.69 224.805C1857.07 225.061 1856.39 225.128 1855.74 224.998C1855.09 224.869 1854.49 224.549 1854.02 224.078C1853.55 223.608 1853.22 223.008 1853.09 222.355C1852.96 221.702 1853.03 221.025 1853.28 220.41C1853.54 219.794 1853.97 219.268 1854.52 218.898C1855.08 218.527 1855.73 218.329 1856.39 218.329C1857.29 218.328 1858.14 218.682 1858.78 219.313C1859.41 219.944 1859.76 220.801 1859.76 221.694Z" fill="white"/>
</g>
</g>
<g style="mix-blend-mode:soft-light" opacity="0.33">
<g style="mix-blend-mode:soft-light" opacity="0.33">
<path d="M64.0154 359.339C65.8744 359.339 67.3814 357.832 67.3814 355.973C67.3814 354.114 65.8744 352.607 64.0154 352.607C62.1564 352.607 60.6494 354.114 60.6494 355.973C60.6494 357.832 62.1564 359.339 64.0154 359.339Z" fill="white"/>
</g>
<g style="mix-blend-mode:soft-light" opacity="0.33">
<path d="M205.256 355.973C205.257 356.639 205.06 357.29 204.69 357.844C204.32 358.398 203.794 358.83 203.179 359.085C202.564 359.34 201.886 359.407 201.233 359.277C200.58 359.147 199.98 358.826 199.509 358.355C199.038 357.884 198.717 357.284 198.587 356.631C198.457 355.978 198.524 355.301 198.779 354.685C199.034 354.07 199.466 353.544 200.02 353.174C200.574 352.804 201.225 352.607 201.891 352.608C202.784 352.608 203.64 352.963 204.271 353.594C204.902 354.225 205.256 355.08 205.256 355.973Z" fill="white"/>
</g>
<g style="mix-blend-mode:soft-light" opacity="0.33">
<path d="M339.766 359.339C341.625 359.339 343.132 357.832 343.132 355.973C343.132 354.114 341.625 352.607 339.766 352.607C337.907 352.607 336.4 354.114 336.4 355.973C336.4 357.832 337.907 359.339 339.766 359.339Z" fill="white"/>
</g>
<g style="mix-blend-mode:soft-light" opacity="0.33">
<path d="M477.641 359.339C479.5 359.339 481.007 357.832 481.007 355.973C481.007 354.114 479.5 352.607 477.641 352.607C475.782 352.607 474.275 354.114 474.275 355.973C474.275 357.832 475.782 359.339 477.641 359.339Z" fill="white"/>
</g>
<g style="mix-blend-mode:soft-light" opacity="0.33">
<path d="M618.887 355.973C618.888 356.639 618.691 357.29 618.321 357.844C617.951 358.398 617.425 358.83 616.81 359.085C616.195 359.34 615.518 359.407 614.864 359.277C614.211 359.147 613.611 358.827 613.14 358.356C612.669 357.885 612.348 357.285 612.218 356.632C612.088 355.978 612.155 355.301 612.41 354.686C612.665 354.071 613.096 353.545 613.65 353.175C614.204 352.805 614.855 352.607 615.521 352.608C616.414 352.608 617.27 352.963 617.901 353.593C618.532 354.224 618.887 355.08 618.887 355.973Z" fill="white"/>
</g>
<g style="mix-blend-mode:soft-light" opacity="0.33">
<path d="M753.392 359.339C755.251 359.339 756.758 357.832 756.758 355.973C756.758 354.114 755.251 352.607 753.392 352.607C751.533 352.607 750.026 354.114 750.026 355.973C750.026 357.832 751.533 359.339 753.392 359.339Z" fill="white"/>
</g>
<g style="mix-blend-mode:soft-light" opacity="0.33">
<path d="M894.632 355.973C894.632 356.638 894.435 357.289 894.065 357.842C893.696 358.396 893.17 358.827 892.555 359.082C891.94 359.336 891.264 359.403 890.611 359.273C889.958 359.143 889.358 358.823 888.888 358.352C888.417 357.881 888.097 357.282 887.967 356.629C887.837 355.976 887.904 355.3 888.159 354.685C888.413 354.07 888.844 353.545 889.398 353.175C889.951 352.805 890.602 352.608 891.267 352.608C892.16 352.608 893.015 352.963 893.646 353.594C894.277 354.225 894.632 355.08 894.632 355.973Z" fill="white"/>
</g>
<g style="mix-blend-mode:soft-light" opacity="0.33">
<path d="M1032.51 355.973C1032.51 356.639 1032.31 357.29 1031.94 357.844C1031.57 358.398 1031.05 358.83 1030.43 359.085C1029.82 359.34 1029.14 359.407 1028.49 359.277C1027.83 359.148 1027.23 358.827 1026.76 358.357C1026.29 357.886 1025.97 357.286 1025.84 356.633C1025.71 355.98 1025.78 355.303 1026.03 354.687C1026.29 354.072 1026.72 353.546 1027.27 353.176C1027.83 352.806 1028.48 352.608 1029.14 352.608C1030.04 352.607 1030.89 352.962 1031.52 353.593C1032.15 354.224 1032.51 355.08 1032.51 355.973Z" fill="white"/>
</g>
<g style="mix-blend-mode:soft-light" opacity="0.33">
<path d="M1167.02 359.339C1168.88 359.339 1170.38 357.832 1170.38 355.973C1170.38 354.114 1168.88 352.607 1167.02 352.607C1165.16 352.607 1163.65 354.114 1163.65 355.973C1163.65 357.832 1165.16 359.339 1167.02 359.339Z" fill="white"/>
</g>
<g style="mix-blend-mode:soft-light" opacity="0.33">
<path d="M1304.89 359.339C1306.75 359.339 1308.26 357.832 1308.26 355.973C1308.26 354.114 1306.75 352.607 1304.89 352.607C1303.03 352.607 1301.53 354.114 1301.53 355.973C1301.53 357.832 1303.03 359.339 1304.89 359.339Z" fill="white"/>
</g>
<g style="mix-blend-mode:soft-light" opacity="0.33">
<path d="M1442.77 359.339C1444.63 359.339 1446.13 357.832 1446.13 355.973C1446.13 354.114 1444.63 352.607 1442.77 352.607C1440.91 352.607 1439.4 354.114 1439.4 355.973C1439.4 357.832 1440.91 359.339 1442.77 359.339Z" fill="white"/>
</g>
<g style="mix-blend-mode:soft-light" opacity="0.33">
<path d="M1580.64 359.339C1582.5 359.339 1584.01 357.832 1584.01 355.973C1584.01 354.114 1582.5 352.607 1580.64 352.607C1578.78 352.607 1577.28 354.114 1577.28 355.973C1577.28 357.832 1578.78 359.339 1580.64 359.339Z" fill="white"/>
</g>
<g style="mix-blend-mode:soft-light" opacity="0.33">
<path d="M1718.52 359.339C1720.38 359.339 1721.89 357.832 1721.89 355.973C1721.89 354.114 1720.38 352.607 1718.52 352.607C1716.66 352.607 1715.15 354.114 1715.15 355.973C1715.15 357.832 1716.66 359.339 1718.52 359.339Z" fill="white"/>
</g>
<g style="mix-blend-mode:soft-light" opacity="0.33">
<path d="M1856.39 359.339C1858.25 359.339 1859.76 357.832 1859.76 355.973C1859.76 354.114 1858.25 352.607 1856.39 352.607C1854.54 352.607 1853.03 354.114 1853.03 355.973C1853.03 357.832 1854.54 359.339 1856.39 359.339Z" fill="white"/>
</g>
</g>
<g style="mix-blend-mode:soft-light" opacity="0.33">
<g style="mix-blend-mode:soft-light" opacity="0.33">
<path d="M67.3804 490.25C67.3804 490.915 67.183 491.566 66.8133 492.119C66.4436 492.673 65.9181 493.104 65.3033 493.359C64.6885 493.613 64.0119 493.68 63.3592 493.55C62.7065 493.42 62.1069 493.1 61.6363 492.63C61.1656 492.159 60.8451 491.56 60.7152 490.907C60.5852 490.254 60.6518 489.578 60.9063 488.963C61.1608 488.348 61.5918 487.822 62.1451 487.452C62.6983 487.082 63.349 486.885 64.0145 486.885C64.4564 486.885 64.8939 486.972 65.3023 487.141C65.7107 487.31 66.0818 487.558 66.3943 487.87C66.7069 488.182 66.9549 488.553 67.1241 488.962C67.2933 489.37 67.3804 489.808 67.3804 490.25Z" fill="white"/>
</g>
<g style="mix-blend-mode:soft-light" opacity="0.33">
<path d="M205.256 490.25C205.257 490.916 205.06 491.567 204.69 492.121C204.32 492.675 203.794 493.107 203.179 493.362C202.564 493.617 201.886 493.684 201.233 493.554C200.58 493.424 199.98 493.104 199.509 492.633C199.038 492.162 198.717 491.561 198.587 490.908C198.457 490.255 198.524 489.578 198.779 488.962C199.034 488.347 199.466 487.821 200.02 487.451C200.574 487.082 201.225 486.884 201.891 486.885C202.784 486.885 203.639 487.24 204.27 487.871C204.901 488.502 205.256 489.357 205.256 490.25Z" fill="white"/>
</g>
<g style="mix-blend-mode:soft-light" opacity="0.33">
<path d="M343.134 490.25C343.134 490.916 342.937 491.567 342.567 492.121C342.197 492.675 341.672 493.107 341.057 493.362C340.442 493.617 339.764 493.684 339.111 493.554C338.458 493.425 337.858 493.104 337.387 492.634C336.916 492.163 336.595 491.563 336.464 490.91C336.334 490.257 336.401 489.58 336.655 488.964C336.91 488.349 337.341 487.823 337.895 487.453C338.449 487.083 339.099 486.885 339.765 486.885C340.658 486.885 341.514 487.239 342.146 487.87C342.778 488.501 343.133 489.357 343.134 490.25Z" fill="white"/>
</g>
<g style="mix-blend-mode:soft-light" opacity="0.33">
<path d="M481.007 490.25C481.007 490.915 480.81 491.566 480.44 492.119C480.07 492.673 479.545 493.104 478.93 493.359C478.315 493.613 477.639 493.68 476.986 493.55C476.333 493.42 475.734 493.1 475.263 492.629C474.792 492.159 474.472 491.559 474.342 490.906C474.212 490.253 474.279 489.577 474.533 488.962C474.788 488.347 475.22 487.822 475.773 487.452C476.326 487.082 476.977 486.885 477.642 486.885C478.535 486.885 479.39 487.24 480.021 487.871C480.652 488.502 481.007 489.357 481.007 490.25Z" fill="white"/>
</g>
<g style="mix-blend-mode:soft-light" opacity="0.33">
<path d="M618.887 490.25C618.888 490.916 618.691 491.567 618.321 492.121C617.951 492.675 617.425 493.107 616.81 493.362C616.195 493.617 615.518 493.684 614.864 493.554C614.211 493.424 613.611 493.104 613.14 492.633C612.669 492.162 612.348 491.562 612.218 490.909C612.088 490.255 612.155 489.578 612.41 488.963C612.665 488.348 613.096 487.822 613.65 487.452C614.204 487.082 614.855 486.885 615.521 486.885C616.414 486.885 617.27 487.24 617.901 487.871C618.532 488.502 618.887 489.357 618.887 490.25Z" fill="white"/>
</g>
<g style="mix-blend-mode:soft-light" opacity="0.33">
<path d="M756.76 490.25C756.761 490.916 756.564 491.567 756.194 492.121C755.824 492.675 755.299 493.106 754.684 493.362C754.069 493.617 753.392 493.684 752.738 493.554C752.085 493.425 751.485 493.105 751.014 492.634C750.543 492.163 750.222 491.564 750.091 490.911C749.961 490.258 750.027 489.581 750.282 488.965C750.536 488.35 750.968 487.824 751.521 487.453C752.075 487.083 752.726 486.885 753.392 486.885C754.284 486.885 755.141 487.239 755.773 487.87C756.404 488.501 756.76 489.357 756.76 490.25Z" fill="white"/>
</g>
<g style="mix-blend-mode:soft-light" opacity="0.33">
<path d="M894.632 490.25C894.632 490.915 894.435 491.566 894.065 492.119C893.696 492.673 893.17 493.104 892.555 493.359C891.94 493.613 891.264 493.68 890.611 493.55C889.958 493.42 889.358 493.1 888.888 492.629C888.417 492.159 888.097 491.559 887.967 490.906C887.837 490.253 887.904 489.577 888.159 488.962C888.413 488.347 888.844 487.822 889.398 487.452C889.951 487.082 890.602 486.885 891.267 486.885C892.16 486.885 893.015 487.24 893.646 487.871C894.277 488.502 894.632 489.357 894.632 490.25Z" fill="white"/>
</g>
<g style="mix-blend-mode:soft-light" opacity="0.33">
<path d="M1032.51 490.25C1032.51 490.916 1032.31 491.567 1031.94 492.121C1031.57 492.675 1031.05 493.107 1030.43 493.362C1029.82 493.617 1029.14 493.684 1028.49 493.554C1027.83 493.425 1027.23 493.104 1026.76 492.634C1026.29 492.163 1025.97 491.563 1025.84 490.91C1025.71 490.257 1025.78 489.58 1026.03 488.964C1026.29 488.349 1026.72 487.823 1027.27 487.453C1027.83 487.083 1028.48 486.885 1029.14 486.885C1030.04 486.885 1030.89 487.239 1031.52 487.87C1032.15 488.501 1032.51 489.357 1032.51 490.25Z" fill="white"/>
</g>
<g style="mix-blend-mode:soft-light" opacity="0.33">
<path d="M1170.38 490.25C1170.38 490.915 1170.19 491.566 1169.82 492.119C1169.45 492.673 1168.92 493.104 1168.31 493.359C1167.69 493.613 1167.02 493.68 1166.36 493.55C1165.71 493.42 1165.11 493.1 1164.64 492.63C1164.17 492.159 1163.85 491.56 1163.72 490.907C1163.59 490.254 1163.65 489.578 1163.91 488.963C1164.16 488.348 1164.6 487.822 1165.15 487.452C1165.7 487.082 1166.35 486.885 1167.02 486.885C1167.46 486.885 1167.9 486.972 1168.31 487.141C1168.71 487.31 1169.08 487.558 1169.4 487.87C1169.71 488.182 1169.96 488.553 1170.13 488.962C1170.3 489.37 1170.38 489.808 1170.38 490.25Z" fill="white"/>
</g>
<g style="mix-blend-mode:soft-light" opacity="0.33">
<path d="M1308.26 490.25C1308.26 490.916 1308.06 491.567 1307.69 492.121C1307.32 492.675 1306.8 493.107 1306.18 493.362C1305.57 493.617 1304.89 493.684 1304.24 493.554C1303.58 493.424 1302.98 493.104 1302.51 492.633C1302.04 492.162 1301.72 491.561 1301.59 490.908C1301.46 490.255 1301.53 489.578 1301.78 488.962C1302.04 488.347 1302.47 487.821 1303.02 487.451C1303.58 487.082 1304.23 486.884 1304.89 486.885C1305.79 486.885 1306.64 487.24 1307.27 487.871C1307.9 488.502 1308.26 489.357 1308.26 490.25Z" fill="white"/>
</g>
<g style="mix-blend-mode:soft-light" opacity="0.33">
<path d="M1446.14 490.25C1446.14 490.916 1445.94 491.567 1445.57 492.121C1445.2 492.675 1444.67 493.106 1444.06 493.362C1443.44 493.617 1442.77 493.684 1442.11 493.554C1441.46 493.425 1440.86 493.105 1440.39 492.634C1439.92 492.163 1439.6 491.564 1439.47 490.911C1439.34 490.258 1439.4 489.581 1439.66 488.965C1439.91 488.35 1440.34 487.824 1440.9 487.453C1441.45 487.083 1442.1 486.885 1442.77 486.885C1443.66 486.885 1444.52 487.239 1445.15 487.87C1445.78 488.501 1446.13 489.357 1446.14 490.25Z" fill="white"/>
</g>
<g style="mix-blend-mode:soft-light" opacity="0.33">
<path d="M1584.01 490.25C1584.01 490.915 1583.81 491.566 1583.44 492.119C1583.07 492.673 1582.54 493.104 1581.93 493.359C1581.31 493.613 1580.64 493.68 1579.99 493.55C1579.33 493.42 1578.73 493.1 1578.26 492.629C1577.79 492.158 1577.47 491.558 1577.34 490.906C1577.21 490.253 1577.28 489.576 1577.53 488.961C1577.79 488.346 1578.22 487.821 1578.77 487.451C1579.33 487.082 1579.98 486.885 1580.64 486.885C1581.54 486.886 1582.39 487.24 1583.02 487.871C1583.65 488.502 1584.01 489.358 1584.01 490.25Z" fill="white"/>
</g>
<g style="mix-blend-mode:soft-light" opacity="0.33">
<path d="M1721.89 490.25C1721.89 490.916 1721.69 491.567 1721.32 492.121C1720.95 492.675 1720.42 493.107 1719.81 493.362C1719.19 493.617 1718.52 493.684 1717.86 493.554C1717.21 493.424 1716.61 493.104 1716.14 492.633C1715.67 492.162 1715.35 491.562 1715.22 490.909C1715.09 490.255 1715.15 489.578 1715.41 488.963C1715.66 488.348 1716.09 487.822 1716.65 487.452C1717.2 487.082 1717.85 486.885 1718.52 486.885C1719.41 486.885 1720.27 487.24 1720.9 487.871C1721.53 488.502 1721.88 489.357 1721.89 490.25Z" fill="white"/>
</g>
<g style="mix-blend-mode:soft-light" opacity="0.33">
<path d="M1859.76 490.25C1859.76 490.916 1859.57 491.567 1859.2 492.121C1858.83 492.674 1858.3 493.106 1857.69 493.362C1857.07 493.617 1856.39 493.684 1855.74 493.555C1855.09 493.425 1854.49 493.105 1854.02 492.634C1853.55 492.164 1853.22 491.564 1853.09 490.911C1852.96 490.258 1853.03 489.581 1853.28 488.966C1853.54 488.35 1853.97 487.824 1854.52 487.454C1855.08 487.083 1855.73 486.885 1856.39 486.885C1857.29 486.884 1858.14 487.238 1858.78 487.869C1859.41 488.5 1859.76 489.357 1859.76 490.25Z" fill="white"/>
</g>
</g>
<g style="mix-blend-mode:soft-light" opacity="0.33">
<g style="mix-blend-mode:soft-light" opacity="0.33">
<path d="M64.0154 627.896C65.8744 627.896 67.3814 626.389 67.3814 624.53C67.3814 622.671 65.8744 621.164 64.0154 621.164C62.1564 621.164 60.6494 622.671 60.6494 624.53C60.6494 626.389 62.1564 627.896 64.0154 627.896Z" fill="white"/>
</g>
<g style="mix-blend-mode:soft-light" opacity="0.33">
<path d="M205.256 624.529C205.257 625.195 205.06 625.846 204.69 626.4C204.32 626.954 203.794 627.386 203.179 627.641C202.564 627.896 201.886 627.963 201.233 627.833C200.58 627.703 199.98 627.382 199.509 626.911C199.038 626.44 198.717 625.84 198.587 625.187C198.457 624.534 198.524 623.856 198.779 623.241C199.034 622.626 199.466 622.1 200.02 621.73C200.574 621.36 201.225 621.163 201.891 621.164C202.333 621.163 202.771 621.25 203.179 621.419C203.588 621.589 203.959 621.836 204.271 622.149C204.584 622.461 204.832 622.832 205.001 623.241C205.17 623.649 205.257 624.087 205.256 624.529Z" fill="white"/>
</g>
<g style="mix-blend-mode:soft-light" opacity="0.33">
<path d="M339.766 627.896C341.625 627.896 343.132 626.389 343.132 624.53C343.132 622.671 341.625 621.164 339.766 621.164C337.907 621.164 336.4 622.671 336.4 624.53C336.4 626.389 337.907 627.896 339.766 627.896Z" fill="white"/>
</g>
<g style="mix-blend-mode:soft-light" opacity="0.33">
<path d="M477.641 627.896C479.5 627.896 481.007 626.389 481.007 624.53C481.007 622.671 479.5 621.164 477.641 621.164C475.782 621.164 474.275 622.671 474.275 624.53C474.275 626.389 475.782 627.896 477.641 627.896Z" fill="white"/>
</g>
<g style="mix-blend-mode:soft-light" opacity="0.33">
<path d="M618.887 624.529C618.888 625.195 618.691 625.846 618.321 626.4C617.951 626.954 617.425 627.386 616.81 627.641C616.195 627.896 615.518 627.963 614.864 627.833C614.211 627.703 613.611 627.383 613.14 626.912C612.669 626.441 612.348 625.841 612.218 625.188C612.088 624.534 612.155 623.857 612.41 623.242C612.665 622.627 613.096 622.101 613.65 621.731C614.204 621.361 614.855 621.163 615.521 621.164C615.963 621.163 616.401 621.25 616.809 621.419C617.218 621.588 617.589 621.836 617.901 622.149C618.214 622.461 618.462 622.832 618.631 623.241C618.8 623.649 618.887 624.087 618.887 624.529Z" fill="white"/>
</g>
<g style="mix-blend-mode:soft-light" opacity="0.33">
<path d="M753.392 627.896C755.251 627.896 756.758 626.389 756.758 624.53C756.758 622.671 755.251 621.164 753.392 621.164C751.533 621.164 750.026 622.671 750.026 624.53C750.026 626.389 751.533 627.896 753.392 627.896Z" fill="white"/>
</g>
<g style="mix-blend-mode:soft-light" opacity="0.33">
<path d="M894.632 624.529C894.632 625.194 894.435 625.845 894.065 626.398C893.696 626.951 893.17 627.383 892.555 627.637C891.94 627.892 891.264 627.959 890.611 627.829C889.958 627.699 889.358 627.379 888.888 626.908C888.417 626.437 888.097 625.838 887.967 625.185C887.837 624.532 887.904 623.856 888.159 623.241C888.413 622.626 888.844 622.1 889.398 621.731C889.951 621.361 890.602 621.164 891.267 621.164C891.709 621.163 892.147 621.25 892.555 621.419C892.964 621.589 893.335 621.836 893.647 622.149C893.96 622.461 894.208 622.832 894.377 623.241C894.546 623.649 894.633 624.087 894.632 624.529Z" fill="white"/>
</g>
<g style="mix-blend-mode:soft-light" opacity="0.33">
<path d="M1032.51 624.529C1032.51 625.195 1032.31 625.846 1031.94 626.4C1031.57 626.954 1031.05 627.385 1030.43 627.641C1029.82 627.896 1029.14 627.963 1028.49 627.833C1027.83 627.704 1027.23 627.383 1026.76 626.912C1026.29 626.442 1025.97 625.842 1025.84 625.189C1025.71 624.536 1025.78 623.859 1026.03 623.243C1026.29 622.628 1026.72 622.102 1027.27 621.732C1027.83 621.361 1028.48 621.164 1029.14 621.164C1029.58 621.163 1030.02 621.25 1030.43 621.419C1030.84 621.588 1031.21 621.836 1031.52 622.148C1031.84 622.461 1032.08 622.832 1032.25 623.24C1032.42 623.649 1032.51 624.086 1032.51 624.529Z" fill="white"/>
</g>
<g style="mix-blend-mode:soft-light" opacity="0.33">
<path d="M1167.02 627.896C1168.88 627.896 1170.38 626.389 1170.38 624.53C1170.38 622.671 1168.88 621.164 1167.02 621.164C1165.16 621.164 1163.65 622.671 1163.65 624.53C1163.65 626.389 1165.16 627.896 1167.02 627.896Z" fill="white"/>
</g>
<g style="mix-blend-mode:soft-light" opacity="0.33">
<path d="M1304.89 627.896C1306.75 627.896 1308.26 626.389 1308.26 624.53C1308.26 622.671 1306.75 621.164 1304.89 621.164C1303.03 621.164 1301.53 622.671 1301.53 624.53C1301.53 626.389 1303.03 627.896 1304.89 627.896Z" fill="white"/>
</g>
<g style="mix-blend-mode:soft-light" opacity="0.33">
<path d="M1442.77 627.896C1444.63 627.896 1446.13 626.389 1446.13 624.53C1446.13 622.671 1444.63 621.164 1442.77 621.164C1440.91 621.164 1439.4 622.671 1439.4 624.53C1439.4 626.389 1440.91 627.896 1442.77 627.896Z" fill="white"/>
</g>
<g style="mix-blend-mode:soft-light" opacity="0.33">
<path d="M1580.64 627.896C1582.5 627.896 1584.01 626.389 1584.01 624.53C1584.01 622.671 1582.5 621.164 1580.64 621.164C1578.78 621.164 1577.28 622.671 1577.28 624.53C1577.28 626.389 1578.78 627.896 1580.64 627.896Z" fill="white"/>
</g>
<g style="mix-blend-mode:soft-light" opacity="0.33">
<path d="M1718.52 627.896C1720.38 627.896 1721.89 626.389 1721.89 624.53C1721.89 622.671 1720.38 621.164 1718.52 621.164C1716.66 621.164 1715.15 622.671 1715.15 624.53C1715.15 626.389 1716.66 627.896 1718.52 627.896Z" fill="white"/>
</g>
<g style="mix-blend-mode:soft-light" opacity="0.33">
<path d="M1856.39 627.896C1858.25 627.896 1859.76 626.389 1859.76 624.53C1859.76 622.671 1858.25 621.164 1856.39 621.164C1854.54 621.164 1853.03 622.671 1853.03 624.53C1853.03 626.389 1854.54 627.896 1856.39 627.896Z" fill="white"/>
</g>
</g>
<g style="mix-blend-mode:soft-light" opacity="0.33">
<g style="mix-blend-mode:soft-light" opacity="0.33">
<path d="M67.3804 758.81C67.3796 759.475 67.1815 760.125 66.8113 760.678C66.4412 761.231 65.9155 761.661 65.3006 761.916C64.6857 762.17 64.0092 762.236 63.3568 762.106C62.7043 761.975 62.1051 761.655 61.6348 761.184C61.1646 760.713 60.8445 760.114 60.7149 759.461C60.5853 758.809 60.6519 758.132 60.9066 757.518C61.1612 756.903 61.5924 756.378 62.1456 756.008C62.6987 755.638 63.3491 755.441 64.0145 755.441C64.4568 755.441 64.8946 755.528 65.3033 755.697C65.7119 755.866 66.0832 756.114 66.3958 756.427C66.7084 756.74 66.9564 757.112 67.1253 757.521C67.2942 757.929 67.381 758.367 67.3804 758.81Z" fill="white"/>
</g>
<g style="mix-blend-mode:soft-light" opacity="0.33">
<path d="M205.256 758.81C205.256 759.476 205.058 760.126 204.688 760.68C204.318 761.233 203.792 761.665 203.176 761.919C202.561 762.174 201.884 762.24 201.231 762.11C200.578 761.979 199.978 761.658 199.507 761.187C199.037 760.716 198.716 760.116 198.587 759.463C198.457 758.809 198.524 758.132 198.779 757.517C199.035 756.902 199.466 756.377 200.02 756.007C200.574 755.637 201.226 755.44 201.891 755.441C202.334 755.441 202.771 755.528 203.18 755.697C203.588 755.867 203.959 756.115 204.272 756.428C204.584 756.741 204.832 757.112 205.001 757.521C205.17 757.93 205.257 758.367 205.256 758.81Z" fill="white"/>
</g>
<g style="mix-blend-mode:soft-light" opacity="0.33">
<path d="M343.133 758.81C343.133 759.475 342.935 760.126 342.565 760.68C342.195 761.233 341.669 761.664 341.054 761.919C340.438 762.173 339.762 762.24 339.109 762.11C338.456 761.98 337.856 761.659 337.385 761.188C336.914 760.717 336.594 760.117 336.464 759.464C336.334 758.811 336.401 758.135 336.656 757.519C336.91 756.904 337.342 756.378 337.895 756.008C338.449 755.638 339.1 755.441 339.765 755.441C340.208 755.441 340.646 755.528 341.055 755.697C341.463 755.866 341.835 756.114 342.148 756.427C342.46 756.74 342.708 757.112 342.878 757.52C343.047 757.929 343.134 758.367 343.133 758.81Z" fill="white"/>
</g>
<g style="mix-blend-mode:soft-light" opacity="0.33">
<path d="M481.007 758.81C481.006 759.475 480.808 760.125 480.438 760.678C480.068 761.231 479.542 761.662 478.927 761.916C478.312 762.17 477.636 762.236 476.983 762.106C476.331 761.975 475.732 761.654 475.261 761.184C474.791 760.713 474.471 760.113 474.342 759.461C474.212 758.808 474.279 758.132 474.534 757.517C474.789 756.902 475.22 756.377 475.773 756.008C476.326 755.638 476.977 755.441 477.642 755.441C478.084 755.441 478.522 755.528 478.931 755.697C479.339 755.867 479.71 756.115 480.023 756.428C480.335 756.741 480.583 757.112 480.752 757.521C480.921 757.93 481.008 758.367 481.007 758.81Z" fill="white"/>
</g>
<g style="mix-blend-mode:soft-light" opacity="0.33">
<path d="M618.887 758.81C618.887 759.476 618.689 760.126 618.319 760.68C617.949 761.233 617.422 761.665 616.807 761.919C616.192 762.174 615.515 762.24 614.862 762.11C614.209 761.979 613.609 761.659 613.138 761.187C612.668 760.716 612.347 760.116 612.218 759.463C612.088 758.81 612.155 758.133 612.41 757.518C612.665 756.903 613.097 756.377 613.651 756.008C614.204 755.638 614.855 755.44 615.521 755.441C615.963 755.441 616.402 755.528 616.81 755.697C617.219 755.867 617.59 756.115 617.902 756.428C618.215 756.741 618.463 757.112 618.632 757.521C618.801 757.929 618.888 758.367 618.887 758.81Z" fill="white"/>
</g>
<g style="mix-blend-mode:soft-light" opacity="0.33">
<path d="M756.76 758.81C756.76 759.475 756.562 760.126 756.192 760.68C755.822 761.233 755.296 761.664 754.681 761.919C754.066 762.173 753.389 762.24 752.736 762.11C752.083 761.98 751.483 761.659 751.013 761.189C750.542 760.718 750.221 760.118 750.091 759.465C749.961 758.812 750.028 758.135 750.282 757.52C750.537 756.905 750.968 756.379 751.522 756.009C752.075 755.639 752.726 755.441 753.391 755.441C753.834 755.44 754.272 755.527 754.681 755.697C755.09 755.866 755.461 756.114 755.774 756.427C756.087 756.74 756.335 757.111 756.504 757.52C756.674 757.929 756.761 758.367 756.76 758.81Z" fill="white"/>
</g>
<g style="mix-blend-mode:soft-light" opacity="0.33">
<path d="M894.632 758.81C894.632 759.475 894.434 760.125 894.063 760.678C893.693 761.231 893.167 761.662 892.552 761.916C891.937 762.17 891.261 762.236 890.609 762.106C889.956 761.975 889.357 761.654 888.887 761.184C888.416 760.713 888.096 760.113 887.967 759.461C887.837 758.808 887.904 758.132 888.159 757.517C888.414 756.902 888.845 756.377 889.398 756.008C889.952 755.638 890.602 755.441 891.267 755.441C891.71 755.441 892.147 755.528 892.556 755.697C892.964 755.867 893.335 756.115 893.648 756.428C893.96 756.741 894.208 757.112 894.377 757.521C894.546 757.93 894.633 758.367 894.632 758.81Z" fill="white"/>
</g>
<g style="mix-blend-mode:soft-light" opacity="0.33">
<path d="M1032.51 758.81C1032.51 759.475 1032.31 760.126 1031.94 760.68C1031.57 761.233 1031.05 761.664 1030.43 761.919C1029.82 762.173 1029.14 762.24 1028.49 762.11C1027.83 761.98 1027.23 761.659 1026.76 761.188C1026.29 760.717 1025.97 760.117 1025.84 759.464C1025.71 758.811 1025.78 758.135 1026.03 757.519C1026.29 756.904 1026.72 756.378 1027.27 756.008C1027.83 755.638 1028.48 755.441 1029.14 755.441C1029.58 755.441 1030.02 755.528 1030.43 755.697C1030.84 755.866 1031.21 756.114 1031.52 756.427C1031.84 756.74 1032.09 757.112 1032.25 757.52C1032.42 757.929 1032.51 758.367 1032.51 758.81Z" fill="white"/>
</g>
<g style="mix-blend-mode:soft-light" opacity="0.33">
<path d="M1170.38 758.81C1170.38 759.475 1170.18 760.125 1169.81 760.678C1169.44 761.231 1168.92 761.661 1168.3 761.916C1167.69 762.17 1167.01 762.236 1166.36 762.106C1165.71 761.975 1165.11 761.655 1164.64 761.184C1164.17 760.713 1163.85 760.114 1163.72 759.461C1163.59 758.809 1163.66 758.132 1163.91 757.518C1164.16 756.903 1164.6 756.378 1165.15 756.008C1165.7 755.638 1166.35 755.441 1167.02 755.441C1167.46 755.441 1167.9 755.528 1168.31 755.697C1168.72 755.866 1169.09 756.114 1169.4 756.427C1169.71 756.74 1169.96 757.112 1170.13 757.521C1170.3 757.929 1170.38 758.367 1170.38 758.81Z" fill="white"/>
</g>
<g style="mix-blend-mode:soft-light" opacity="0.33">
<path d="M1308.26 758.81C1308.26 759.476 1308.06 760.126 1307.69 760.68C1307.32 761.233 1306.79 761.665 1306.18 761.919C1305.56 762.174 1304.89 762.24 1304.23 762.11C1303.58 761.979 1302.98 761.658 1302.51 761.187C1302.04 760.716 1301.72 760.116 1301.59 759.463C1301.46 758.809 1301.53 758.132 1301.78 757.517C1302.04 756.902 1302.47 756.377 1303.02 756.007C1303.58 755.637 1304.23 755.44 1304.89 755.441C1305.34 755.441 1305.77 755.528 1306.18 755.697C1306.59 755.867 1306.96 756.115 1307.27 756.428C1307.59 756.741 1307.84 757.112 1308 757.521C1308.17 757.93 1308.26 758.367 1308.26 758.81Z" fill="white"/>
</g>
<g style="mix-blend-mode:soft-light" opacity="0.33">
<path d="M1446.14 758.81C1446.13 759.475 1445.94 760.126 1445.57 760.68C1445.2 761.233 1444.67 761.664 1444.06 761.919C1443.44 762.173 1442.76 762.24 1442.11 762.11C1441.46 761.98 1440.86 761.659 1440.39 761.189C1439.92 760.718 1439.6 760.118 1439.47 759.465C1439.34 758.812 1439.4 758.135 1439.66 757.52C1439.91 756.905 1440.34 756.379 1440.9 756.009C1441.45 755.639 1442.1 755.441 1442.77 755.441C1443.21 755.44 1443.65 755.527 1444.06 755.697C1444.46 755.866 1444.84 756.114 1445.15 756.427C1445.46 756.74 1445.71 757.111 1445.88 757.52C1446.05 757.929 1446.14 758.367 1446.14 758.81Z" fill="white"/>
</g>
<g style="mix-blend-mode:soft-light" opacity="0.33">
<path d="M1584.01 758.81C1584.01 759.475 1583.81 760.125 1583.44 760.678C1583.07 761.231 1582.54 761.662 1581.93 761.916C1581.31 762.17 1580.64 762.236 1579.98 762.105C1579.33 761.975 1578.73 761.654 1578.26 761.183C1577.79 760.712 1577.47 760.113 1577.34 759.46C1577.21 758.807 1577.28 758.131 1577.53 757.516C1577.79 756.902 1578.22 756.376 1578.77 756.007C1579.33 755.638 1579.98 755.44 1580.64 755.441C1581.09 755.441 1581.52 755.528 1581.93 755.698C1582.34 755.867 1582.71 756.115 1583.02 756.428C1583.34 756.741 1583.58 757.113 1583.75 757.521C1583.92 757.93 1584.01 758.368 1584.01 758.81Z" fill="white"/>
</g>
<g style="mix-blend-mode:soft-light" opacity="0.33">
<path d="M1721.89 758.81C1721.89 759.476 1721.69 760.126 1721.32 760.68C1720.95 761.233 1720.42 761.665 1719.81 761.919C1719.19 762.174 1718.51 762.24 1717.86 762.11C1717.21 761.979 1716.61 761.659 1716.14 761.187C1715.67 760.716 1715.35 760.116 1715.22 759.463C1715.09 758.81 1715.15 758.133 1715.41 757.518C1715.66 756.903 1716.09 756.377 1716.65 756.008C1717.2 755.638 1717.85 755.44 1718.52 755.441C1718.96 755.441 1719.4 755.528 1719.81 755.697C1720.22 755.867 1720.59 756.115 1720.9 756.428C1721.21 756.741 1721.46 757.112 1721.63 757.521C1721.8 757.929 1721.89 758.367 1721.89 758.81Z" fill="white"/>
</g>
<g style="mix-blend-mode:soft-light" opacity="0.33">
<path d="M1859.76 758.81C1859.76 759.475 1859.57 760.126 1859.2 760.679C1858.82 761.233 1858.3 761.664 1857.68 761.919C1857.07 762.173 1856.39 762.24 1855.74 762.11C1855.09 761.98 1854.49 761.66 1854.02 761.189C1853.55 760.718 1853.22 760.119 1853.09 759.466C1852.96 758.813 1853.03 758.136 1853.28 757.521C1853.54 756.906 1853.97 756.38 1854.52 756.009C1855.08 755.639 1855.73 755.441 1856.39 755.441C1856.84 755.44 1857.27 755.527 1857.68 755.697C1858.09 755.866 1858.46 756.114 1858.78 756.427C1859.09 756.74 1859.34 757.111 1859.51 757.52C1859.68 757.929 1859.76 758.367 1859.76 758.81Z" fill="white"/>
</g>
</g>
<g style="mix-blend-mode:soft-light" opacity="0.33">
<g style="mix-blend-mode:soft-light" opacity="0.33">
<path d="M64.0154 896.453C65.8744 896.453 67.3814 894.946 67.3814 893.087C67.3814 891.228 65.8744 889.721 64.0154 889.721C62.1564 889.721 60.6494 891.228 60.6494 893.087C60.6494 894.946 62.1564 896.453 64.0154 896.453Z" fill="white"/>
</g>
<g style="mix-blend-mode:soft-light" opacity="0.33">
<path d="M205.256 893.086C205.257 893.752 205.06 894.403 204.69 894.957C204.32 895.511 203.794 895.943 203.179 896.198C202.564 896.453 201.886 896.52 201.233 896.39C200.58 896.26 199.98 895.94 199.509 895.469C199.038 894.998 198.717 894.397 198.587 893.744C198.457 893.091 198.524 892.414 198.779 891.798C199.034 891.183 199.466 890.657 200.02 890.287C200.574 889.917 201.225 889.72 201.891 889.721C202.784 889.721 203.639 890.076 204.27 890.707C204.901 891.338 205.256 892.193 205.256 893.086Z" fill="white"/>
</g>
<g style="mix-blend-mode:soft-light" opacity="0.33">
<path d="M339.766 896.453C341.625 896.453 343.132 894.946 343.132 893.087C343.132 891.228 341.625 889.721 339.766 889.721C337.907 889.721 336.4 891.228 336.4 893.087C336.4 894.946 337.907 896.453 339.766 896.453Z" fill="white"/>
</g>
<g style="mix-blend-mode:soft-light" opacity="0.33">
<path d="M477.641 896.453C479.5 896.453 481.007 894.946 481.007 893.087C481.007 891.228 479.5 889.721 477.641 889.721C475.782 889.721 474.275 891.228 474.275 893.087C474.275 894.946 475.782 896.453 477.641 896.453Z" fill="white"/>
</g>
<g style="mix-blend-mode:soft-light" opacity="0.33">
<path d="M618.887 893.086C618.888 893.752 618.691 894.403 618.321 894.957C617.951 895.511 617.425 895.943 616.81 896.198C616.195 896.453 615.518 896.52 614.864 896.39C614.211 896.26 613.611 895.94 613.14 895.469C612.669 894.998 612.348 894.398 612.218 893.745C612.088 893.091 612.155 892.414 612.41 891.799C612.665 891.184 613.096 890.658 613.65 890.288C614.204 889.918 614.855 889.721 615.521 889.721C616.414 889.721 617.27 890.076 617.901 890.707C618.532 891.337 618.887 892.193 618.887 893.086Z" fill="white"/>
</g>
<g style="mix-blend-mode:soft-light" opacity="0.33">
<path d="M753.392 896.453C755.251 896.453 756.758 894.946 756.758 893.087C756.758 891.228 755.251 889.721 753.392 889.721C751.533 889.721 750.026 891.228 750.026 893.087C750.026 894.946 751.533 896.453 753.392 896.453Z" fill="white"/>
</g>
<g style="mix-blend-mode:soft-light" opacity="0.33">
<path d="M894.632 893.086C894.632 893.751 894.435 894.402 894.065 894.955C893.696 895.509 893.17 895.94 892.555 896.195C891.94 896.449 891.264 896.516 890.611 896.386C889.958 896.256 889.358 895.936 888.888 895.465C888.417 894.995 888.097 894.395 887.967 893.742C887.837 893.089 887.904 892.413 888.159 891.798C888.413 891.183 888.844 890.658 889.398 890.288C889.951 889.918 890.602 889.721 891.267 889.721C892.16 889.721 893.015 890.076 893.646 890.707C894.277 891.338 894.632 892.193 894.632 893.086Z" fill="white"/>
</g>
<g style="mix-blend-mode:soft-light" opacity="0.33">
<path d="M1032.51 893.086C1032.51 893.752 1032.31 894.403 1031.94 894.957C1031.57 895.511 1031.05 895.943 1030.43 896.198C1029.82 896.453 1029.14 896.52 1028.49 896.39C1027.83 896.261 1027.23 895.94 1026.76 895.47C1026.29 894.999 1025.97 894.399 1025.84 893.746C1025.71 893.093 1025.78 892.416 1026.03 891.8C1026.29 891.185 1026.72 890.659 1027.27 890.289C1027.83 889.919 1028.48 889.721 1029.14 889.721C1030.04 889.721 1030.89 890.075 1031.52 890.706C1032.15 891.337 1032.51 892.193 1032.51 893.086Z" fill="white"/>
</g>
<g style="mix-blend-mode:soft-light" opacity="0.33">
<path d="M1167.02 896.453C1168.88 896.453 1170.38 894.946 1170.38 893.087C1170.38 891.228 1168.88 889.721 1167.02 889.721C1165.16 889.721 1163.65 891.228 1163.65 893.087C1163.65 894.946 1165.16 896.453 1167.02 896.453Z" fill="white"/>
</g>
<g style="mix-blend-mode:soft-light" opacity="0.33">
<path d="M1304.89 896.453C1306.75 896.453 1308.26 894.946 1308.26 893.087C1308.26 891.228 1306.75 889.721 1304.89 889.721C1303.03 889.721 1301.53 891.228 1301.53 893.087C1301.53 894.946 1303.03 896.453 1304.89 896.453Z" fill="white"/>
</g>
<g style="mix-blend-mode:soft-light" opacity="0.33">
<path d="M1442.77 896.453C1444.63 896.453 1446.13 894.946 1446.13 893.087C1446.13 891.228 1444.63 889.721 1442.77 889.721C1440.91 889.721 1439.4 891.228 1439.4 893.087C1439.4 894.946 1440.91 896.453 1442.77 896.453Z" fill="white"/>
</g>
<g style="mix-blend-mode:soft-light" opacity="0.33">
<path d="M1580.64 896.453C1582.5 896.453 1584.01 894.946 1584.01 893.087C1584.01 891.228 1582.5 889.721 1580.64 889.721C1578.78 889.721 1577.28 891.228 1577.28 893.087C1577.28 894.946 1578.78 896.453 1580.64 896.453Z" fill="white"/>
</g>
<g style="mix-blend-mode:soft-light" opacity="0.33">
<path d="M1718.52 896.453C1720.38 896.453 1721.89 894.946 1721.89 893.087C1721.89 891.228 1720.38 889.721 1718.52 889.721C1716.66 889.721 1715.15 891.228 1715.15 893.087C1715.15 894.946 1716.66 896.453 1718.52 896.453Z" fill="white"/>
</g>
<g style="mix-blend-mode:soft-light" opacity="0.33">
<path d="M1856.39 896.453C1858.25 896.453 1859.76 894.946 1859.76 893.087C1859.76 891.228 1858.25 889.721 1856.39 889.721C1854.54 889.721 1853.03 891.228 1853.03 893.087C1853.03 894.946 1854.54 896.453 1856.39 896.453Z" fill="white"/>
</g>
</g>
<g style="mix-blend-mode:soft-light" opacity="0.33">
<g style="mix-blend-mode:soft-light" opacity="0.33">
<path d="M64.0154 1030.73C65.8744 1030.73 67.3814 1029.22 67.3814 1027.36C67.3814 1025.51 65.8744 1024 64.0154 1024C62.1564 1024 60.6494 1025.51 60.6494 1027.36C60.6494 1029.22 62.1564 1030.73 64.0154 1030.73Z" fill="white"/>
</g>
<g style="mix-blend-mode:soft-light" opacity="0.33">
<path d="M205.256 1027.37C205.257 1028.03 205.06 1028.68 204.69 1029.24C204.32 1029.79 203.794 1030.22 203.179 1030.48C202.564 1030.73 201.886 1030.8 201.233 1030.67C200.58 1030.54 199.98 1030.22 199.509 1029.75C199.038 1029.28 198.717 1028.68 198.587 1028.02C198.457 1027.37 198.524 1026.69 198.779 1026.08C199.034 1025.46 199.466 1024.94 200.02 1024.57C200.574 1024.2 201.225 1024 201.891 1024C202.784 1024 203.64 1024.36 204.271 1024.99C204.902 1025.62 205.256 1026.47 205.256 1027.37Z" fill="white"/>
</g>
<g style="mix-blend-mode:soft-light" opacity="0.33">
<path d="M339.766 1030.73C341.625 1030.73 343.132 1029.22 343.132 1027.36C343.132 1025.51 341.625 1024 339.766 1024C337.907 1024 336.4 1025.51 336.4 1027.36C336.4 1029.22 337.907 1030.73 339.766 1030.73Z" fill="white"/>
</g>
<g style="mix-blend-mode:soft-light" opacity="0.33">
<path d="M477.641 1030.73C479.5 1030.73 481.007 1029.22 481.007 1027.36C481.007 1025.51 479.5 1024 477.641 1024C475.782 1024 474.275 1025.51 474.275 1027.36C474.275 1029.22 475.782 1030.73 477.641 1030.73Z" fill="white"/>
</g>
<g style="mix-blend-mode:soft-light" opacity="0.33">
<path d="M618.887 1027.37C618.888 1028.03 618.691 1028.68 618.321 1029.24C617.951 1029.79 617.425 1030.22 616.81 1030.48C616.195 1030.73 615.518 1030.8 614.864 1030.67C614.211 1030.54 613.611 1030.22 613.14 1029.75C612.669 1029.28 612.348 1028.68 612.218 1028.02C612.088 1027.37 612.155 1026.69 612.41 1026.08C612.665 1025.46 613.096 1024.94 613.65 1024.57C614.204 1024.2 614.855 1024 615.521 1024C616.414 1024 617.27 1024.36 617.901 1024.99C618.532 1025.62 618.887 1026.47 618.887 1027.37Z" fill="white"/>
</g>
<g style="mix-blend-mode:soft-light" opacity="0.33">
<path d="M753.392 1030.73C755.251 1030.73 756.758 1029.22 756.758 1027.36C756.758 1025.51 755.251 1024 753.392 1024C751.533 1024 750.026 1025.51 750.026 1027.36C750.026 1029.22 751.533 1030.73 753.392 1030.73Z" fill="white"/>
</g>
<g style="mix-blend-mode:soft-light" opacity="0.33">
<path d="M894.632 1027.37C894.632 1028.03 894.435 1028.68 894.065 1029.23C893.696 1029.79 893.17 1030.22 892.555 1030.47C891.94 1030.73 891.264 1030.8 890.611 1030.67C889.958 1030.54 889.358 1030.22 888.888 1029.74C888.417 1029.27 888.097 1028.67 887.967 1028.02C887.837 1027.37 887.904 1026.69 888.159 1026.08C888.413 1025.46 888.844 1024.94 889.398 1024.57C889.951 1024.2 890.602 1024 891.267 1024C892.16 1024 893.015 1024.36 893.646 1024.99C894.277 1025.62 894.632 1026.47 894.632 1027.37Z" fill="white"/>
</g>
<g style="mix-blend-mode:soft-light" opacity="0.33">
<path d="M1032.51 1027.37C1032.51 1028.03 1032.31 1028.68 1031.94 1029.24C1031.57 1029.79 1031.05 1030.22 1030.43 1030.48C1029.82 1030.73 1029.14 1030.8 1028.49 1030.67C1027.83 1030.54 1027.23 1030.22 1026.76 1029.75C1026.29 1029.28 1025.97 1028.68 1025.84 1028.03C1025.71 1027.37 1025.78 1026.7 1026.03 1026.08C1026.29 1025.46 1026.72 1024.94 1027.27 1024.57C1027.83 1024.2 1028.48 1024 1029.14 1024C1030.04 1024 1030.89 1024.35 1031.52 1024.99C1032.15 1025.62 1032.51 1026.47 1032.51 1027.37Z" fill="white"/>
</g>
<g style="mix-blend-mode:soft-light" opacity="0.33">
<path d="M1167.02 1030.73C1168.88 1030.73 1170.38 1029.22 1170.38 1027.36C1170.38 1025.51 1168.88 1024 1167.02 1024C1165.16 1024 1163.65 1025.51 1163.65 1027.36C1163.65 1029.22 1165.16 1030.73 1167.02 1030.73Z" fill="white"/>
</g>
<g style="mix-blend-mode:soft-light" opacity="0.33">
<path d="M1304.89 1030.73C1306.75 1030.73 1308.26 1029.22 1308.26 1027.36C1308.26 1025.51 1306.75 1024 1304.89 1024C1303.03 1024 1301.53 1025.51 1301.53 1027.36C1301.53 1029.22 1303.03 1030.73 1304.89 1030.73Z" fill="white"/>
</g>
<g style="mix-blend-mode:soft-light" opacity="0.33">
<path d="M1442.77 1030.73C1444.63 1030.73 1446.13 1029.22 1446.13 1027.36C1446.13 1025.51 1444.63 1024 1442.77 1024C1440.91 1024 1439.4 1025.51 1439.4 1027.36C1439.4 1029.22 1440.91 1030.73 1442.77 1030.73Z" fill="white"/>
</g>
<g style="mix-blend-mode:soft-light" opacity="0.33">
<path d="M1580.64 1030.73C1582.5 1030.73 1584.01 1029.22 1584.01 1027.36C1584.01 1025.51 1582.5 1024 1580.64 1024C1578.78 1024 1577.28 1025.51 1577.28 1027.36C1577.28 1029.22 1578.78 1030.73 1580.64 1030.73Z" fill="white"/>
</g>
<g style="mix-blend-mode:soft-light" opacity="0.33">
<path d="M1718.52 1030.73C1720.38 1030.73 1721.89 1029.22 1721.89 1027.36C1721.89 1025.51 1720.38 1024 1718.52 1024C1716.66 1024 1715.15 1025.51 1715.15 1027.36C1715.15 1029.22 1716.66 1030.73 1718.52 1030.73Z" fill="white"/>
</g>
<g style="mix-blend-mode:soft-light" opacity="0.33">
<path d="M1856.39 1030.73C1858.25 1030.73 1859.76 1029.22 1859.76 1027.36C1859.76 1025.51 1858.25 1024 1856.39 1024C1854.54 1024 1853.03 1025.51 1853.03 1027.36C1853.03 1029.22 1854.54 1030.73 1856.39 1030.73Z" fill="white"/>
</g>
</g>
</g>
</g>
<defs>
<radialGradient id="paint0_radial" cx="0" cy="0" r="1" gradientUnits="userSpaceOnUse" gradientTransform="translate(44.9288 44.7559) scale(1606.35 1352.88)">
<stop stop-color="#262935"/>
<stop offset="1" stop-color="#141A24"/>
</radialGradient>
<radialGradient id="paint1_radial" cx="0" cy="0" r="1" gradientUnits="userSpaceOnUse" gradientTransform="translate(-1105.44 156.9) scale(952.921 952.118)">
<stop stop-color="#262935"/>
<stop offset="1" stop-color="#141A24"/>
</radialGradient>
<radialGradient id="paint2_radial" cx="0" cy="0" r="1" gradientUnits="userSpaceOnUse" gradientTransform="translate(-1588.37 475.935) scale(889.545 888.568)">
<stop stop-color="#262935"/>
<stop offset="1" stop-color="#141A24"/>
</radialGradient>
<radialGradient id="paint3_radial" cx="0" cy="0" r="1" gradientUnits="userSpaceOnUse" gradientTransform="translate(-835.898 829.461) scale(472.759 472.481)">
<stop stop-color="#262935"/>
<stop offset="1" stop-color="#141A24"/>
</radialGradient>
<linearGradient id="paint4_linear" x1="188.051" y1="137.397" x2="499.5" y2="626.906" gradientUnits="userSpaceOnUse">
<stop stop-color="#B8B9BD"/>
<stop offset="1" stop-color="#141A24" stop-opacity="0"/>
</linearGradient>
<clipPath id="clip0">
<rect width="1920" height="1125" fill="white"/>
</clipPath>
</defs>
</svg>
