<svg id="Layer_1" data-name="Layer 1" xmlns="http://www.w3.org/2000/svg" viewBox="0 0 44.43 44.15"><defs><style>.cls-1{fill:#f4bb19;}</style></defs><title>web</title><g id="tihmWp"><path class="cls-1" d="M22.5,36.28h0a3.22,3.22,0,0,1-2.28-1.13c-1.22-1.24-2.45-2.47-3.68-3.71-1.94-2-3.89-3.91-5.78-5.92a16.59,16.59,0,0,1-2.89-4.28,8.35,8.35,0,0,1,2.42-10.56,9.35,9.35,0,0,1,11.43.11l.82.66a8.88,8.88,0,0,1,7.12-2.67,8.85,8.85,0,0,1,7.09,4,8.56,8.56,0,0,1,.67,7.84,16.12,16.12,0,0,1-3.15,4.94c-1.9,2-3.87,4-5.83,6q-1.84,1.83-3.65,3.67A3.24,3.24,0,0,1,22.5,36.28ZM16,12.44a5.71,5.71,0,0,0-3.45,1.16,4.67,4.67,0,0,0-1.33,6.06A13,13,0,0,0,13.41,23c1.88,2,3.8,3.91,5.72,5.84q1.7,1.7,3.37,3.4c1.16-1.17,2.25-2.26,3.34-3.34,1.93-1.93,3.87-3.86,5.73-5.86A12.41,12.41,0,0,0,34,19.26a4.88,4.88,0,0,0-.35-4.52,5.24,5.24,0,0,0-4.21-2.3A5.45,5.45,0,0,0,24.35,15l-1.09,1.62L21,14.91c-.55-.42-1.1-.84-1.63-1.27A5.41,5.41,0,0,0,16,12.44Z"/><path class="cls-1" d="M22.5,36.28h0a3.22,3.22,0,0,1-2.28-1.13c-1.22-1.24-2.45-2.47-3.68-3.71-1.94-2-3.89-3.91-5.78-5.92a16.59,16.59,0,0,1-2.89-4.28,8.35,8.35,0,0,1,2.42-10.56,9.35,9.35,0,0,1,11.43.11l.82.66a8.88,8.88,0,0,1,7.12-2.67,8.85,8.85,0,0,1,7.09,4,8.56,8.56,0,0,1,.67,7.84,16.12,16.12,0,0,1-3.15,4.94c-1.9,2-3.87,4-5.83,6q-1.84,1.83-3.65,3.67A3.24,3.24,0,0,1,22.5,36.28ZM16,12.44a5.71,5.71,0,0,0-3.45,1.16,4.67,4.67,0,0,0-1.33,6.06A13,13,0,0,0,13.41,23c1.88,2,3.8,3.91,5.72,5.84q1.7,1.7,3.37,3.4c1.16-1.17,2.25-2.26,3.34-3.34,1.93-1.93,3.87-3.86,5.73-5.86A12.41,12.41,0,0,0,34,19.26a4.88,4.88,0,0,0-.35-4.52,5.24,5.24,0,0,0-4.21-2.3A5.45,5.45,0,0,0,24.35,15l-1.09,1.62L21,14.91c-.55-.42-1.1-.84-1.63-1.27A5.41,5.41,0,0,0,16,12.44Z"/></g></svg>