<svg width="21" height="20" viewBox="0 0 21 20" fill="none" xmlns="http://www.w3.org/2000/svg">
<path d="M1.4375 5.75V18.6875H14.375V5.75H1.4375ZM0.71875 4.3125H15.0938C15.2844 4.3125 15.4672 4.38823 15.602 4.52302C15.7368 4.65781 15.8125 4.84063 15.8125 5.03125V19.4062C15.8125 19.5969 15.7368 19.7797 15.602 19.9145C15.4672 20.0493 15.2844 20.125 15.0938 20.125H0.71875C0.528126 20.125 0.345309 20.0493 0.210517 19.9145C0.0757252 19.7797 0 19.5969 0 19.4062V5.03125C0 4.84063 0.0757252 4.65781 0.210517 4.52302C0.345309 4.38823 0.528126 4.3125 0.71875 4.3125V4.3125ZM20.125 0.71875V16.5312C20.125 16.7219 20.0493 16.9047 19.9145 17.0395C19.7797 17.1743 19.5969 17.25 19.4062 17.25H17.25V15.8125H18.6875V1.4375H7.1875V2.875H5.75V0.71875C5.75 0.528126 5.82573 0.345309 5.96052 0.210517C6.09531 0.0757252 6.27813 0 6.46875 0H19.4062C19.5969 0 19.7797 0.0757252 19.9145 0.210517C20.0493 0.345309 20.125 0.528126 20.125 0.71875ZM4.3125 13.6562H11.5V15.0938H4.3125V13.6562ZM4.3125 9.34375H11.5V10.7812H4.3125V9.34375Z" fill="black"/>
</svg>
