<svg width="39" height="34" viewBox="0 0 39 34" fill="none" xmlns="http://www.w3.org/2000/svg">
<path d="M19.5818 33.7154C19.0497 33.685 18.5289 33.5493 18.0495 33.3162C17.5702 33.0831 17.1419 32.7571 16.7895 32.3573C15.2636 30.8314 13.8293 29.3054 12.334 27.7795C9.96892 25.3991 7.58858 23.0187 5.28453 20.5772C3.85433 19.0277 2.67069 17.2676 1.77506 15.3585C0.661605 13.2169 0.347996 10.7485 0.890529 8.39649C1.43306 6.04447 2.79621 3.96286 4.73523 2.52543C6.73744 1.00574 9.18789 0.194545 11.7014 0.219404C14.2148 0.244264 16.6487 1.10381 18.6205 2.66281C18.9409 2.93747 19.2766 3.19691 19.6276 3.45632C20.7975 2.28928 22.2087 1.39244 23.7621 0.828881C25.3155 0.265319 26.9734 0.0486542 28.6195 0.194071C30.2655 0.339489 31.8598 0.843464 33.2903 1.67064C34.7209 2.49781 35.953 3.62817 36.9003 4.98225C37.7883 6.3912 38.3253 7.99268 38.466 9.65223C38.6067 11.3118 38.3471 12.9809 37.709 14.5193C36.8122 16.7415 35.514 18.7794 33.8791 20.5314C31.575 23.0034 29.1794 25.3838 26.7838 27.7795C25.258 29.3054 23.8237 30.7399 22.3589 32.2353C22.0074 32.6312 21.5811 32.9537 21.1045 33.1842C20.6279 33.4146 20.1104 33.5485 19.5818 33.5781V33.7154ZM11.6321 4.58549C10.1166 4.57644 8.64093 5.07013 7.43599 5.98932C6.31025 6.80626 5.52365 8.00813 5.22549 9.36677C4.92733 10.7254 5.13838 12.1463 5.81858 13.3596C6.50152 14.8488 7.41847 16.2191 8.5346 17.4185C10.8081 19.8447 13.1122 22.1946 15.4925 24.5446L19.5818 28.6646L23.6406 24.6056C25.9904 22.2557 28.3555 19.9057 30.6137 17.4795C31.8636 16.1439 32.8614 14.5929 33.5587 12.9017C33.939 12.0209 34.1002 11.0611 34.0285 10.1044C33.9567 9.14768 33.6541 8.22261 33.1467 7.40842C32.5802 6.5668 31.8206 5.87282 30.9315 5.3844C30.0423 4.89599 29.0492 4.62735 28.035 4.60076C26.82 4.4943 25.5989 4.72239 24.5042 5.26035C23.4095 5.79831 22.4829 6.62563 21.8248 7.65262L20.5126 9.62103L17.7813 7.54579L15.7977 6.01987C14.6259 5.0474 13.1547 4.50851 11.6321 4.49394" fill="#F4BB19"/>
</svg>
