<svg id="Layer_1" data-name="Layer 1" xmlns="http://www.w3.org/2000/svg" viewBox="0 0 125.85 119.22"><defs><style>.cls-1{fill:#141a23;}</style></defs><title>placas e iconos</title><rect class="cls-1" x="87.77" y="34.3" width="3.43" height="58.8"/><g id="CBePht"><path d="M50.14,83.73h-17c-5.13,0-8.22-3.12-8.22-8.26V53.86c0-4.82,3.06-7.94,7.89-8,2.21,0,4.42,0,6.62,0,2,0,3,.85,3,2.46s-1.05,2.48-3,2.49c-2.26,0-4.51,0-6.76,0a2.6,2.6,0,0,0-2.89,2.83q0,11.15,0,22.28a2.56,2.56,0,0,0,2.88,2.82q17.49,0,35,0a2.56,2.56,0,0,0,2.85-2.85q0-11.09,0-22.15a2.63,2.63,0,0,0-2.93-2.93c-2.25,0-4.51,0-6.76,0-1.88,0-2.93-.87-3-2.4s1-2.55,2.94-2.54c2.7,0,5.42-.08,8.1.14a7.19,7.19,0,0,1,6.49,7.11c0,7.79.06,15.58,0,23.37,0,4.14-3.42,7.24-7.82,7.26C61.76,83.76,56,83.73,50.14,83.73Z"/><path d="M53,59.84c.88-.94,1.74-1.9,2.65-2.81,1.28-1.28,2.73-1.39,3.79-.35s1,2.5-.27,3.79q-3.47,3.51-7,7c-1.4,1.38-2.74,1.41-4.11,0Q44.59,64,41.08,60.43c-1.22-1.24-1.31-2.63-.29-3.7s2.54-1,3.8.25c.92.92,1.77,1.91,2.65,2.86l.37-.15c0-.45.07-.9.07-1.36,0-5.49,0-11,0-16.46,0-.41,0-.81,0-1.21a2.47,2.47,0,1,1,4.93.05c0,.36,0,.72,0,1.08V59.6Z"/></g></svg>