<svg id="Layer_1" data-name="Layer 1" xmlns="http://www.w3.org/2000/svg" viewBox="0 0 125.85 119.22"><title>placas e iconos</title><g id="_6S683p" data-name="6S683p"><path d="M21,90.55v-70h84.94V90.73H94.78l-.11.22,4,3.92L88,105.51,78,95.39l-6,6.15c-.14-.4-.26-.71-.36-1-1-3-2-6-3-9a1,1,0,0,0-1.16-.84q-22.81,0-45.62,0A6.3,6.3,0,0,1,21,90.55Zm80.1-49.45h-75V85.64H66.75c-2-6.07-4-12-6.06-18.23L94.93,78.8l-6.11,6.09a1.56,1.56,0,0,0,1.58.83c3.24,0,6.48,0,9.72,0h.95ZM26.1,36h75V25.46h-75ZM85.67,81,68.56,75.28c1.92,5.79,3.78,11.37,5.64,17l.29.12,3.88-4,9.75,9.91,3.53-3.53-10-9.93Z"/><path d="M53.59,73l-8.6.26v-5h2.09c1.91-.05,3.81-.1,5.72-.18.55,0,.81.09.8.71C53.57,70.08,53.59,71.46,53.59,73Z"/><path d="M62.13,51.09H67c0,.37,0,.63,0,.9-.07,2.35-.16,4.7-.19,7,0,.67-.25.83-.88.81-1.33-.05-2.65,0-4.15,0Z"/><path d="M49.48,58.92l3.34-3.35,5.84,5.94-3.23,3.31Z"/><path d="M77.39,28.07h5v5.06c-1.56,0-3.1,0-4.64,0-.13,0-.36-.27-.36-.42C77.38,31.18,77.39,29.66,77.39,28.07Z"/><path d="M97.9,28.12v5c-1.58,0-3.15,0-4.71,0-.12,0-.33-.29-.33-.45,0-1.49,0-3,0-4.54Z"/><path d="M90.11,33.08H85.18v-5h4.93Z"/></g></svg>