<svg id="Layer_1" data-name="Layer 1" xmlns="http://www.w3.org/2000/svg" viewBox="0 0 26.6 26.05"><defs><style>.cls-1{fill:#f4bb19;}</style></defs><title>web</title><g id="BqP9dd"><path class="cls-1" d="M6.08,19.74a1.09,1.09,0,0,1,.4-1.27,3.14,3.14,0,0,0,1.35-3.22,30.87,30.87,0,0,1,0-3.47,6.1,6.1,0,0,1,4-5.66c.29-.11.44-.22.45-.58a1.74,1.74,0,0,1,3.46,0,.56.56,0,0,0,.43.6,6.08,6.08,0,0,1,4,5.69c0,1.63,0,3.26,0,4.88a.94.94,0,0,0,.34.81c.35.32.65.69,1,1a1.11,1.11,0,0,1,.38,1.26Z"/><path class="cls-1" d="M6,11.84H4.3A9.58,9.58,0,0,1,7.11,5L8.32,6.29A8.09,8.09,0,0,0,6,11.84Z"/><path class="cls-1" d="M21.91,11.83a8.06,8.06,0,0,0-2.35-5.57L20.81,5a9.58,9.58,0,0,1,2.82,6.8Z"/><path class="cls-1" d="M12.23,20.7h3.45A1.7,1.7,0,0,1,14,22.42,1.73,1.73,0,0,1,12.23,20.7Z"/></g></svg>