<svg width="27" height="25" viewBox="0 0 27 25" fill="none" xmlns="http://www.w3.org/2000/svg">
<path d="M13.1488 25C12.116 25 11.4366 24.2404 11.2191 23.9775C10.1863 22.8382 9.15353 21.728 8.12073 20.6179C6.46281 18.8358 4.83207 17.0538 3.22851 15.2425C2.27725 14.1616 1.4347 12.8178 0.7824 11.3571C-0.766803 7.82217 0.0213878 4.05356 2.82083 1.77487C5.67462 -0.56225 9.72429 -0.533036 12.4694 1.86251C12.6868 2.06701 12.9314 2.27151 13.176 2.44679C14.7524 0.723166 16.818 -0.153254 19.1826 0.0220303C21.7102 0.1681 23.8846 1.48273 25.162 3.64457C26.4122 5.74797 26.6296 8.34802 25.7327 10.7728C25.1891 12.3211 24.2379 13.9279 23.0964 15.2425C21.4928 17.083 19.8349 18.8943 18.1498 20.6763C17.117 21.7865 16.0842 22.8674 15.0786 24.0067C14.8611 24.2404 14.1545 25 13.1488 25ZM7.63151 3.35243C6.59871 3.35243 5.56591 3.70299 4.72336 4.40413C3.09262 5.74797 2.65775 7.79295 3.60902 9.92558C4.12542 11.0941 4.77771 12.1458 5.51155 12.9638C7.06075 14.7459 8.69149 16.4987 10.2951 18.2516C11.2463 19.2741 12.1976 20.2965 13.1488 21.3482C14.1273 20.2673 15.0514 19.3033 15.9755 18.31C17.6062 16.5572 19.2369 14.8043 20.8133 12.993C21.7102 11.9706 22.4441 10.7436 22.8789 9.54579C23.3953 8.08509 23.3138 6.65361 22.58 5.42662C21.8461 4.19963 20.5415 3.44007 19.0195 3.35243C17.1985 3.26478 15.758 4.02435 14.7252 5.68955L13.8011 7.15025L11.8986 5.6019C11.4366 5.19291 10.9745 4.81313 10.5125 4.43334C9.69711 3.70299 8.66431 3.35243 7.63151 3.35243Z" fill="#F8D575"/>
<path d="M13.1488 25C12.116 25 11.4366 24.2404 11.2191 23.9775C10.1863 22.8382 9.15353 21.728 8.12073 20.6179C6.46281 18.8358 4.83207 17.0538 3.22851 15.2425C2.27725 14.1616 1.4347 12.8178 0.7824 11.3571C-0.766803 7.82217 0.0213878 4.05356 2.82083 1.77487C5.67462 -0.56225 9.72429 -0.533036 12.4694 1.86251C12.6868 2.06701 12.9314 2.27151 13.176 2.44679C14.7524 0.723166 16.818 -0.153254 19.1826 0.0220303C21.7102 0.1681 23.8846 1.48273 25.162 3.64457C26.4122 5.74797 26.6296 8.34802 25.7327 10.7728C25.1891 12.3211 24.2379 13.9279 23.0964 15.2425C21.4928 17.083 19.8349 18.8943 18.1498 20.6763C17.117 21.7865 16.0842 22.8674 15.0786 24.0067C14.8611 24.2404 14.1545 25 13.1488 25ZM7.63151 3.35243C6.59871 3.35243 5.56591 3.70299 4.72336 4.40413C3.09262 5.74797 2.65775 7.79295 3.60902 9.92558C4.12542 11.0941 4.77771 12.1458 5.51155 12.9638C7.06075 14.7459 8.69149 16.4987 10.2951 18.2516C11.2463 19.2741 12.1976 20.2965 13.1488 21.3482C14.1273 20.2673 15.0514 19.3033 15.9755 18.31C17.6062 16.5572 19.2369 14.8043 20.8133 12.993C21.7102 11.9706 22.4441 10.7436 22.8789 9.54579C23.3953 8.08509 23.3138 6.65361 22.58 5.42662C21.8461 4.19963 20.5415 3.44007 19.0195 3.35243C17.1985 3.26478 15.758 4.02435 14.7252 5.68955L13.8011 7.15025L11.8986 5.6019C11.4366 5.19291 10.9745 4.81313 10.5125 4.43334C9.69711 3.70299 8.66431 3.35243 7.63151 3.35243Z" fill="#F8D575"/>
</svg>
