<svg id="Layer_1" data-name="Layer 1" xmlns="http://www.w3.org/2000/svg" viewBox="0 0 46.66 43.74"><defs><style>.cls-1{fill:#f4bb19;}</style></defs><title>web</title><g id="XhmarV"><path class="cls-1" d="M15,31.29c-1.88,0-3.69,0-5.51,0a3.35,3.35,0,0,1-3.14-2.84c-.11-1.29-.08-2.59-.09-3.88,0-2.41,0-4.82,0-7.23s0-4.66,0-7A3.48,3.48,0,0,1,9.74,6.87H25.09c4.17,0,8.34,0,12.51,0a3.54,3.54,0,0,1,3.56,3.55c0,3.06,0,6.11,0,9.17,0,2.74,0,5.48,0,8.22a3.44,3.44,0,0,1-2.89,3.44,11.29,11.29,0,0,1-1.93.06H31.21c-1.72,0-3.45,0-5.18,0-1.32,0-2.65,0-4,0a.6.6,0,0,0-.36.24c-.82,1-1.62,2.05-2.43,3.06s-1.63,2-2.47,3a2,2,0,0,1-.67.5.62.62,0,0,1-1-.39,4.33,4.33,0,0,1-.2-1.23c0-1.62,0-3.23,0-4.84ZM37.65,10.37H9.73V27.79H37.65Z"/><path class="cls-1" d="M19.32,19.11a2.62,2.62,0,0,1-5.24-.06,2.62,2.62,0,0,1,5.24.06Z"/><path class="cls-1" d="M21.08,19.07a2.63,2.63,0,0,1,2.81-2.6,2.66,2.66,0,0,1,2.41,2.64,2.61,2.61,0,0,1-5.22,0Z"/><path class="cls-1" d="M30.68,16.47a2.62,2.62,0,1,1-2.62,2.61A2.61,2.61,0,0,1,30.68,16.47Z"/></g></svg>