<svg width="48" height="55" viewBox="0 0 48 55" fill="none" xmlns="http://www.w3.org/2000/svg">
<path d="M24.0458 14.4615C31.1315 14.4846 36.8686 20.3155 36.8686 27.4653C36.8458 34.6613 31.0401 40.5153 23.9315 40.4691C16.8687 40.4228 11.1315 34.5688 11.1544 27.3959C11.1544 20.2461 16.9372 14.4384 24.0458 14.4615ZM35.4744 27.4421C35.4515 21.0328 30.3315 15.8035 24.0229 15.8035C17.6687 15.8035 12.5029 21.0097 12.5029 27.4653C12.4801 33.8978 17.6458 39.1039 24.0458 39.0808C30.3544 39.0576 35.4972 33.8515 35.4744 27.4421Z" fill="black"/>
<path d="M3.61143 11.9163C5.53143 11.9394 7.10857 13.5591 7.08571 15.5027C7.06286 17.4926 5.46286 19.0892 3.47429 19.066C1.53143 19.0429 0 17.4463 0 15.4564C0 13.4665 1.62286 11.87 3.61143 11.9163Z" fill="black"/>
<path d="M44.4802 11.8932C46.423 11.9163 48.0002 13.4897 48.0002 15.4565C48.0002 17.4464 46.4002 19.0661 44.4345 19.0661C42.5145 19.043 40.9145 17.4464 40.8916 15.5028C40.8916 13.5129 42.5145 11.8932 44.4802 11.8932Z" fill="black"/>
<path d="M44.4342 43.0837C42.4914 43.0837 40.9142 41.4871 40.8913 39.5204C40.8685 37.5536 42.5142 35.9108 44.4799 35.9108C46.4228 35.9108 47.9771 37.5073 47.9999 39.4741C48.0228 41.4871 46.4228 43.1068 44.4342 43.0837Z" fill="black"/>
<path d="M24.023 0C25.9658 0 27.5201 1.59655 27.543 3.56332C27.5658 5.57636 25.9887 7.17291 23.9773 7.14977C22.0344 7.14977 20.4801 5.57636 20.4573 3.60959C20.4344 1.61969 22.0344 0 24.023 0Z" fill="black"/>
<path d="M3.56571 43.1069C1.57714 43.1069 0 41.5335 0 39.5204C0 37.5536 1.57714 35.9571 3.49714 35.934C5.46286 35.9108 7.08571 37.5536 7.08571 39.5436C7.08571 41.5103 5.53143 43.0837 3.56571 43.1069Z" fill="black"/>
<path d="M24.0228 47.8502C25.9885 47.8502 27.52 49.4236 27.5428 51.3904C27.5657 53.3803 25.9657 55 24 55C22.0571 55 20.5028 53.4266 20.48 51.4598C20.4342 49.4468 22.0342 47.8271 24.0228 47.8502Z" fill="black"/>
<path d="M24.6171 41.6722C24.6171 43.3845 24.6171 45.0042 24.6171 46.6701C24.1828 46.6701 23.7942 46.6701 23.3828 46.6701C23.3828 45.0042 23.3828 43.3613 23.3828 41.6722C23.7942 41.6722 24.16 41.6722 24.6171 41.6722Z" fill="black"/>
<path d="M23.3828 13.2584C23.3828 11.6155 23.3828 10.019 23.3828 8.35303C23.7942 8.35303 24.16 8.35303 24.6171 8.35303C24.6171 9.94958 24.6171 11.5693 24.6171 13.2584C24.2285 13.2584 23.8628 13.2584 23.3828 13.2584Z" fill="black"/>
<path d="M7.86305 37.6925C7.61162 37.276 7.42877 36.9289 7.2002 36.5356C8.66305 35.6795 10.1031 34.8465 11.5659 33.9904C11.7945 34.4068 12.0002 34.7308 12.2288 35.1241C10.7888 35.9803 9.39448 36.8132 7.86305 37.6925Z" fill="black"/>
<path d="M35.7485 35.1241C35.9771 34.7308 36.1828 34.4068 36.4114 33.9904C37.8971 34.8465 39.3143 35.6795 40.8 36.5356C40.5714 36.9289 40.3657 37.2529 40.1371 37.6694C38.6514 36.8364 37.2342 36.0034 35.7485 35.1241Z" fill="black"/>
<path d="M7.2002 18.4645C7.45162 18.048 7.63448 17.724 7.88591 17.3307C9.32591 18.1868 10.7659 18.9967 12.2059 19.8528C11.9773 20.2461 11.7716 20.5932 11.5431 20.9866C10.0802 20.1304 8.68591 19.2975 7.2002 18.4645Z" fill="black"/>
<path d="M40.1144 17.3075C40.3659 17.724 40.5487 18.0479 40.7773 18.4413C39.3373 19.2743 37.9201 20.1072 36.4344 20.9865C36.2059 20.57 36.0001 20.2461 35.7944 19.8296C37.2344 18.9966 38.6287 18.1636 40.1144 17.3075Z" fill="black"/>
<g clip-path="url(#clip0_151_253)">
<path d="M19.0366 24.2169L23.9933 19L28.907 24.1933L27.1451 26.1262L23.9502 22.8186L20.8655 26.1026L19.0366 24.2169Z" fill="black"/>
<path d="M28.907 30.7831L23.9502 36L19.0366 30.8067L20.7984 28.8738L23.9933 32.1814L27.0781 28.8974L28.907 30.7831Z" fill="black"/>
<path d="M30.207 25.5697L28.415 27.4636L30.207 29.3575L31.9989 27.4636L30.207 25.5697Z" fill="black"/>
<path d="M23.9384 25.5697L22.1465 27.4636L23.9384 29.3575L25.7304 27.4636L23.9384 25.5697Z" fill="black"/>
<path d="M17.7915 25.5696L15.9995 27.4635L17.7915 29.3574L19.5834 27.4635L17.7915 25.5696Z" fill="black"/>
</g>
<defs>
<clipPath id="clip0_151_253">
<rect width="16" height="17" fill="white" transform="translate(16 19)"/>
</clipPath>
</defs>
</svg>
