<svg id="Layer_1" data-name="Layer 1" xmlns="http://www.w3.org/2000/svg" viewBox="0 0 125.85 119.22"><defs><style>.cls-1{fill:#141a23;}</style></defs><title>placas e iconos</title><rect class="cls-1" x="87.77" y="32.05" width="3.43" height="58.8"/><g id="cgb4HB"><path d="M49.59,87.35V83.76h-.42c-1.47,0-3,0-4.42,0-.24,0-.33-.07-.37-.31-.24-1.33-.5-2.66-.74-4a.51.51,0,0,0-.41-.44A21.32,21.32,0,0,1,35,74.22a.39.39,0,0,0-.47-.09l-3.92,1.39c-.18.07-.28.06-.38-.12q-2.48-4.32-5-8.62a.29.29,0,0,1,0-.1l1.38-1.2,1.93-1.63a.45.45,0,0,0,.17-.49c-.24-1.31-.52-2.62-.66-3.94A15.8,15.8,0,0,1,28.64,54a.68.68,0,0,0-.25-.81c-1-.84-2-1.71-3-2.57l-.19-.14,1.71-3q1.65-2.85,3.29-5.71c.13-.22.24-.24.46-.16L34.53,43a.39.39,0,0,0,.47-.1,21.27,21.27,0,0,1,8.3-4.78.44.44,0,0,0,.33-.4c.25-1.35.51-2.7.76-4,0-.23.12-.29.35-.29h9.7c.24,0,.32.08.36.31.24,1.34.51,2.68.75,4a.44.44,0,0,0,.36.4,21.26,21.26,0,0,1,8.29,4.79.39.39,0,0,0,.45.1l3.92-1.39c.19-.07.3-.06.41.14l4.94,8.56a1.13,1.13,0,0,1,.06.14l-2,1.7c-.46.4-.93.79-1.38,1.19a.47.47,0,0,0-.12.35,21.4,21.4,0,0,1,.71,4.77.54.54,0,0,0,0,.12h7.15v28.8ZM69.38,49.62l-2.17-3.74c-1.11.39-2.2.76-3.28,1.16a.49.49,0,0,1-.65-.17c-.14-.19-.33-.36-.49-.54a18.4,18.4,0,0,0-5.58-4.07,21.7,21.7,0,0,0-4.46-1.44.4.4,0,0,1-.35-.37c-.18-1.06-.39-2.12-.58-3.18,0-.22-.11-.33-.36-.33-1.25,0-2.5,0-3.74,0-.24,0-.32.09-.35.3-.14.8-.29,1.6-.44,2.4-.07.36,0,.83-.26,1s-.71.25-1.08.33A18,18,0,0,0,39,44a19.26,19.26,0,0,0-3.15,2.9.42.42,0,0,1-.55.12c-.6-.23-1.22-.43-1.84-.65L32,45.89l-2.14,3.73c.88.76,1.72,1.51,2.6,2.23a.57.57,0,0,1,.19.73,18.13,18.13,0,0,0,0,12,.53.53,0,0,1-.18.7c-.88.73-1.74,1.49-2.61,2.24L32,71.22c1-.36,2-.67,3-1.07a.86.86,0,0,1,1.15.28,18,18,0,0,0,5.61,4.29,18.8,18.8,0,0,0,4.72,1.55.38.38,0,0,1,.35.37c0,.37.13.74.2,1.1.15.8.3,1.59.44,2.39h2.15V69.37a10.81,10.81,0,0,1-1.29-21.54,10.35,10.35,0,0,1,7.23,1.7,10.8,10.8,0,0,1,4.91,9h7.16c0-.19,0-.36,0-.53a18.35,18.35,0,0,0-1-5.45.52.52,0,0,1,.17-.68C67.63,51.15,68.49,50.39,69.38,49.62ZM53.21,69.37V83.73H74.78V69.37Zm3.54-10.82a7,7,0,0,0-3.83-6.39,7.21,7.21,0,0,0-9.48,10.16,7,7,0,0,0,6.17,3.37V58.55Zm-3.56,3.62v3.15c0,.43,0,.43.43.43H74.54a2,2,0,0,0,.24,0V62.17Z"/><path d="M68.17,71.63l2.45,2.65-7.71,7.13-5.54-5.14,2.44-2.64,3.1,2.86Z"/></g></svg>