<svg id="Layer_1" data-name="Layer 1" xmlns="http://www.w3.org/2000/svg" viewBox="0 0 125.85 119.22"><title>placas e iconos</title><g id="_6n3YxK" data-name="6n3YxK"><path d="M60.68,38.14a23.83,23.83,0,1,1-23.89,23.7A23.82,23.82,0,0,1,60.68,38.14ZM81.9,61.94A21.29,21.29,0,1,0,60.7,83.23,21.35,21.35,0,0,0,81.9,61.94Z"/><path d="M22.81,33.48A6.55,6.55,0,1,1,16.13,40,6.56,6.56,0,0,1,22.81,33.48Z"/><path d="M98.58,33.47a6.55,6.55,0,1,1-.09,13.1,6.55,6.55,0,1,1,.09-13.1Z"/><path d="M98.49,90.58A6.56,6.56,0,1,1,105.1,84,6.59,6.59,0,0,1,98.49,90.58Z"/><path d="M60.66,11.68a6.54,6.54,0,1,1-6.61,6.59A6.53,6.53,0,0,1,60.66,11.68Z"/><path d="M22.76,90.59a6.56,6.56,0,1,1-.13-13.11,6.65,6.65,0,0,1,6.64,6.6A6.52,6.52,0,0,1,22.76,90.59Z"/><path d="M60.64,99.28a6.55,6.55,0,1,1-6.59,6.59A6.5,6.5,0,0,1,60.64,99.28Z"/><path d="M61.77,88v9.16h-2.3V88Z"/><path d="M59.46,35.94V27h2.27v9Z"/><path d="M30.73,80.69l-1.24-2.1,8.11-4.68L38.82,76Z"/><path d="M82.38,76l1.25-2.09,8.11,4.67-1.25,2.1Z"/><path d="M29.5,45.46l1.25-2.08,8,4.62-1.22,2.1Z"/><path d="M90.49,43.36l1.24,2.09-8,4.65L82.48,48Z"/><path d="M60.61,48.42l6.46,11.19c-2,1.19-4,2.35-6,3.46a1.33,1.33,0,0,1-1.05,0c-1.94-1.09-3.85-2.23-5.89-3.43Z"/><path d="M55.44,64.18c1.35.78,2.74,1.52,4.05,2.37a1.85,1.85,0,0,0,2.29,0,22.18,22.18,0,0,1,4.3-2.17L60.62,75.22,55.15,64.38Z"/></g></svg>