<svg width="43" height="39" viewBox="0 0 43 39" fill="none" xmlns="http://www.w3.org/2000/svg">
<path d="M11.0369 29.7085C8.76342 29.7085 6.55093 29.7085 4.33844 29.7085C3.404 29.657 2.51549 29.2865 1.82125 28.6588C1.12701 28.0312 0.669048 27.1844 0.523802 26.2599C0.386475 24.7339 0.432251 23.1011 0.416992 21.5294C0.416992 18.5997 0.416992 15.6699 0.416992 12.7401C0.416992 9.81031 0.416992 7.07891 0.416992 4.25594C0.41696 3.69499 0.528176 3.13966 0.744207 2.62198C0.960238 2.1043 1.27679 1.63456 1.67555 1.24004C2.07431 0.845526 2.54734 0.534066 3.06729 0.323593C3.58723 0.113121 4.14376 0.00786549 4.70465 0.0139189H38.5786C39.1468 0.00985997 39.7102 0.118816 40.2359 0.334397C40.7617 0.549978 41.2393 0.867851 41.6411 1.26966C42.0429 1.67147 42.3608 2.14912 42.5764 2.67488C42.7919 3.20064 42.9009 3.76409 42.8968 4.33232V15.5478C42.8968 18.8744 42.8968 22.2008 42.8968 25.5274C42.9172 26.5303 42.5751 27.507 41.9331 28.2779C41.2912 29.0488 40.3927 29.5622 39.4026 29.7237C38.6151 29.7772 37.825 29.7772 37.0375 29.7237H24.4645C22.8471 29.7237 21.2297 29.7237 19.6123 29.7237C19.4597 29.7237 19.2918 29.8915 19.185 30.0136L16.2249 33.7368C15.2331 34.9881 14.2412 36.2242 13.1731 37.4297C12.9475 37.692 12.6659 37.9005 12.3492 38.04C12.246 38.1069 12.1281 38.1479 12.0056 38.1595C11.8832 38.171 11.7597 38.1528 11.6458 38.1064C11.5319 38.0599 11.4309 37.9866 11.3515 37.8926C11.272 37.7987 11.2165 37.687 11.1895 37.5669C11.0287 37.0742 10.9463 36.5593 10.9454 36.041C10.9454 34.0726 10.9454 32.1194 10.9454 30.151L11.0369 29.7085ZM38.6397 4.28649H4.62836V25.4511H38.5786L38.6397 4.28649Z" fill="#F4BB19"/>
<path d="M16.3468 14.9072C16.3367 15.7531 15.991 16.5602 15.3858 17.1512C14.7806 17.7421 13.9654 18.0684 13.1196 18.0583C12.2738 18.0482 11.4667 17.7025 10.8758 17.0972C10.2849 16.492 9.95862 15.6768 9.96873 14.831C9.97885 13.9851 10.3245 13.1779 10.9298 12.587C11.535 11.996 12.3501 11.6698 13.1959 11.6799C14.0417 11.69 14.8488 12.0357 15.4397 12.641C16.0306 13.2462 16.3569 14.0614 16.3468 14.9072Z" fill="#F4BB19"/>
<path d="M18.4829 14.8612C18.486 14.425 18.5785 13.9941 18.7547 13.595C18.9309 13.196 19.1872 12.8374 19.5075 12.5413C19.8279 12.2453 20.2056 12.0181 20.6172 11.8738C21.0289 11.7296 21.4658 11.6712 21.9008 11.7026C22.7009 11.7749 23.445 12.1437 23.987 12.7366C24.5291 13.3295 24.8299 14.1037 24.8305 14.907C24.8305 15.3238 24.7484 15.7365 24.5889 16.1216C24.4294 16.5066 24.1956 16.8565 23.9009 17.1512C23.6062 17.446 23.2563 17.6797 22.8712 17.8392C22.4862 17.9987 22.0735 18.0808 21.6567 18.0808C21.2399 18.0808 20.8272 17.9987 20.4421 17.8392C20.0571 17.6797 19.7072 17.446 19.4125 17.1512C19.1178 16.8565 18.884 16.5066 18.7245 16.1216C18.565 15.7365 18.4829 15.3238 18.4829 14.907" fill="#F4BB19"/>
<path d="M30.1559 11.6875C30.5746 11.6855 30.9894 11.7668 31.3764 11.9265C31.7634 12.0863 32.1148 12.3213 32.4101 12.618C32.7054 12.9148 32.9388 13.2673 33.0967 13.6551C33.2545 14.0428 33.3338 14.4581 33.3297 14.8767C33.3468 15.2968 33.2769 15.7159 33.1244 16.1077C32.9719 16.4995 32.7401 16.8555 32.4436 17.1535C32.147 17.4515 31.7921 17.6851 31.4011 17.8394C31.01 17.9938 30.5913 18.0657 30.1712 18.0507C29.7494 18.0589 29.3303 17.9821 28.9388 17.825C28.5473 17.6678 28.1915 17.4335 27.8925 17.1359C27.5935 16.8383 27.3575 16.4835 27.1984 16.0928C27.0394 15.702 26.9607 15.2833 26.9669 14.8615C26.9749 14.0195 27.3139 13.2146 27.9107 12.6206C28.5075 12.0267 29.314 11.6915 30.1559 11.6875Z" fill="#F4BB19"/>
</svg>
