<svg id="Layer_1" data-name="Layer 1" xmlns="http://www.w3.org/2000/svg" viewBox="0 0 125.85 119.22"><defs><style>.cls-1{fill:#141a23;}</style></defs><title>placas e iconos</title><rect class="cls-1" x="102.28" y="30.64" width="3.43" height="58.8"/><g id="DolRsm"><path class="cls-1" d="M18.33,43.82c.12-.44.22-.89.36-1.33a7.67,7.67,0,0,1,7.44-5.42c4.61,0,9.23,0,13.84,0h.88c0-.37,0-.67,0-1a4.84,4.84,0,0,1,4.72-4.66q6.49-.06,13,0a4.86,4.86,0,0,1,4.74,4.65c0,.28,0,.57,0,1h.81c4.54,0,9.09.07,13.64,0a7.94,7.94,0,0,1,8.1,8.1c-.07,11.49,0,23,0,34.47a7.75,7.75,0,0,1-8.09,8.08c-17,0-34.09,0-51.14,0a7.91,7.91,0,0,1-8.17-6.55c0-.06-.07-.11-.1-.17Zm22.43-2.54H26.45c-2.51,0-3.9,1.4-3.9,3.92V79.55a3.58,3.58,0,0,0,3.92,3.93H77.68a3.58,3.58,0,0,0,3.94-3.92V45.16a3.53,3.53,0,0,0-3.89-3.87H64.08l-.73,0c0,.34,0,.62,0,.9a4.8,4.8,0,0,1-4.67,4.64c-4.37.06-8.74,0-13.11,0A4.73,4.73,0,0,1,41,43.2,16.65,16.65,0,0,1,40.76,41.28Zm11.31,1.39h6.12c.72,0,.91-.19.91-.91,0-1.73,0-3.47,0-5.2,0-.7-.22-.91-.91-.91H46c-.73,0-.93.21-.94,1v5.07c0,.84.16,1,1,1Z"/><path class="cls-1" d="M52.08,76.32c0,.24,0,.59,0,.94a2.1,2.1,0,0,1-4.2,0c0-.46,0-.92,0-1.38a3.48,3.48,0,0,0-3.47-3.64c-3.31,0-6.63,0-9.94,0A3.47,3.47,0,0,0,31,75.86c0,.46,0,.92,0,1.38a2.14,2.14,0,0,1-2,2,2.08,2.08,0,0,1-2.17-1.73,8.48,8.48,0,0,1,1.85-6.84A7.61,7.61,0,0,1,34.52,68q4.9,0,9.81,0A7.8,7.8,0,0,1,52.08,76.32Z"/><path class="cls-1" d="M46.44,58.12a7,7,0,1,1-7-7A7,7,0,0,1,46.44,58.12Zm-4.22.06A2.8,2.8,0,1,0,39.39,61,2.81,2.81,0,0,0,42.22,58.18Z"/><path class="cls-1" d="M67.57,56.74h-7.5a2.13,2.13,0,0,1-2.35-2.1,2.1,2.1,0,0,1,2.34-2.11h15a2.11,2.11,0,1,1,0,4.21Z"/><path class="cls-1" d="M67.57,68H59.8a2.08,2.08,0,0,1-2-1.45,2,2,0,0,1,.72-2.29,2.73,2.73,0,0,1,1.4-.45c5.07,0,10.14,0,15.21,0a2.11,2.11,0,1,1,0,4.21Z"/><path class="cls-1" d="M67.56,75c2.59,0,5.18,0,7.77,0a2.08,2.08,0,0,1,1,3.89,2.92,2.92,0,0,1-1.26.3q-7.53,0-15.07,0a2.15,2.15,0,0,1-2.26-1.71,2.06,2.06,0,0,1,1.34-2.36,3.56,3.56,0,0,1,1-.14c2.48,0,5,0,7.44,0Z"/></g></svg>