<svg id="Layer_1" data-name="Layer 1" xmlns="http://www.w3.org/2000/svg" viewBox="0 0 125.85 119.22"><defs><style>.cls-1{fill:#141a23;}</style></defs><title>placas e iconos</title><rect class="cls-1" x="94.96" y="30.99" width="3.43" height="58.8"/><g id="cWDRTP"><path d="M79.51,57.15c-.07.55-.12,1.1-.2,1.64a21.31,21.31,0,0,1-12,16.8,20,20,0,0,1-11.14,2.06,21.39,21.39,0,0,1-8.69-2.71c-1-.57-1.16-.54-2,.28q-5.2,5.2-10.42,10.42a7.36,7.36,0,0,1-3.79,2.15,4.59,4.59,0,0,1-5.17-5.17,7.35,7.35,0,0,1,2.16-3.79L38.78,68.31c.67-.68.72-.89.24-1.73a21.34,21.34,0,0,1-2.71-8,20.47,20.47,0,0,1,1.26-10.36A21.52,21.52,0,0,1,49.36,36.09a20.36,20.36,0,0,1,6.92-1.64,4,4,0,0,0,.46-.08h2.19a3.4,3.4,0,0,0,.46.08,19.71,19.71,0,0,1,7,1.7A21.3,21.3,0,0,1,79.31,53.31c.08.54.13,1.09.2,1.64Zm-5.66-1.07a16,16,0,1,0-16.08,16A16,16,0,0,0,73.85,56.08Z"/><path d="M65.63,46.07a2.23,2.23,0,0,1-3,2.26,10.66,10.66,0,0,0-3.6-.78,9.47,9.47,0,0,0-8.9,5.39A3.24,3.24,0,0,1,49,54.47a2.23,2.23,0,0,1-3.14-2.83A13.8,13.8,0,0,1,50.27,46a13.55,13.55,0,0,1,9.94-2.78,20.79,20.79,0,0,1,4.07,1A1.93,1.93,0,0,1,65.63,46.07Z"/></g></svg>