<svg width="151" height="38" viewBox="0 0 151 38" fill="none" xmlns="http://www.w3.org/2000/svg">
<path d="M64.9081 26.0913L63.8586 28.9372H64.3199L64.5137 28.3654H65.6434L65.8373 28.9372H66.2986L65.2491 26.0913H64.9081ZM64.6474 27.993L65.0953 26.7297L65.5298 27.993H64.6474ZM58.5978 28.0861L57.2742 26.0913H56.8798V28.9372H57.3144V26.9291L58.6379 28.9305H59.0323V26.0847H58.5978V28.0861ZM72.4016 27.86L71.5661 26.0913H71.1316V28.9372H71.5661V27.0355L72.2412 28.4185H72.5621L73.2172 27.0355V28.9372H73.6517V26.0913H73.2172L72.4016 27.86ZM49.8676 19.6217C47.7352 19.6217 46.2312 17.8464 46.2312 15.5657V15.5192C46.2312 13.305 47.7352 11.5097 49.8676 11.5097C51.3249 11.5097 52.3276 12.2012 53.2033 13.285L56.3852 10.8381C55.0349 8.97638 53.0295 7.67314 49.9144 7.67314C45.2953 7.67314 41.8728 11.144 41.8728 15.5657V15.6122C41.8728 20.1403 45.3822 23.4583 49.7406 23.4583C53.1164 23.4583 55.0549 22.0087 56.4988 20.0339L53.3169 17.7799C52.3944 18.8836 51.4586 19.6217 49.8676 19.6217ZM66.9737 7.979H63.0498L56.8598 23.2588H61.499L64.9616 13.6574L68.4243 23.2588H73.1503L66.9737 7.979ZM20.542 21.0845V23.2721L25.6758 26.2775L27.9219 24.9477V22.3745L23.2159 19.5818L20.542 21.0845ZM5.38784 22.2415V24.8612L7.7609 26.1911L12.7677 23.2255V21.1244L10.007 19.6217L5.38784 22.2415ZM0 9.59475V28.5116L16.7718 38L33.2696 28.5116V9.42852L16.6649 0L0 9.59475ZM29.7401 26.4969L16.7451 33.964L3.53619 26.4969V11.5962L16.6582 4.03605L29.7401 11.4632V26.4969ZM14.4121 6.78215V13.3116L16.6582 14.555L18.9444 13.2252V6.8287L16.5713 5.5853L14.4121 6.78215ZM7.63389 11.2105L5.30094 12.5403V15.0737L14.3654 20.2667V30.5729L16.6515 32.0357L18.8976 30.6194V20.2667L27.962 15.1136V12.5403L25.6758 11.164L16.6114 16.3171L7.63389 11.2105ZM130.979 28.9305H132.804V28.5449H131.414V27.6938H132.604V27.3081H131.414V26.477H132.804V26.0913H130.979V28.9305ZM112.496 28.1592L111.841 26.0913H111.393L112.336 28.9372H112.67L113.619 26.0913H113.165L112.496 28.1592ZM78.8189 28.9305H80.6439V28.5449H79.2534V27.6938H80.4433V27.3081H79.2534V26.477H80.6439V26.0913H78.8189V28.9305ZM124.957 26.4504C125.271 26.4504 125.465 26.6499 125.531 26.9358H125.973C125.872 26.3706 125.478 26.0581 124.957 26.0581C124.656 26.0581 124.402 26.1645 124.208 26.364C123.927 26.6432 123.934 26.9557 123.934 27.5076C123.934 28.0528 123.927 28.372 124.208 28.6513C124.402 28.8441 124.662 28.9571 124.957 28.9571C125.471 28.9571 125.879 28.6513 125.973 28.0794H125.538C125.471 28.3654 125.271 28.5648 124.957 28.5648C124.789 28.5648 124.636 28.4983 124.535 28.392C124.395 28.239 124.362 28.0794 124.362 27.5076C124.362 26.9358 124.395 26.7696 124.535 26.6233C124.636 26.5169 124.789 26.4504 124.957 26.4504ZM114.248 13.6973C112.135 13.2185 111.614 12.9193 111.614 12.2212V12.1746C111.614 11.6294 112.115 11.1972 113.138 11.1972C114.488 11.1972 116.012 11.7158 117.41 12.6933L119.522 9.72108C117.864 8.3979 115.839 7.70639 113.245 7.70639C109.582 7.70639 107.336 9.74103 107.336 12.5603V12.6068C107.336 15.7253 109.842 16.6362 113.091 17.3743C115.163 17.853 115.665 18.1988 115.665 18.8238V18.8703C115.665 19.522 115.057 19.9076 113.92 19.9076C112.155 19.9076 110.478 19.2759 108.973 18.0857L106.62 20.885C108.492 22.554 111.066 23.3984 113.766 23.3984C117.47 23.3984 119.936 21.5566 119.936 18.4581V18.4115C119.936 15.5857 117.757 14.4619 114.248 13.6973ZM120.698 11.6626H125.277V23.1524H129.502V11.6626H134.081V7.979H120.698V11.6626ZM144.823 7.979H140.899L134.709 23.2588H139.349L142.811 13.6574L146.274 23.2588H151L144.823 7.979ZM118.432 28.9305H118.867V26.0847H118.432V28.9305ZM92.0746 27.3281L91.7471 27.2815C91.6134 27.2616 91.4998 27.215 91.4262 27.1486C91.3527 27.0821 91.3193 26.989 91.3193 26.8826C91.3193 26.6299 91.5064 26.4371 91.8407 26.4371C92.0813 26.4371 92.2886 26.4903 92.4623 26.6565L92.7364 26.3839C92.4891 26.1578 92.2284 26.0581 91.8474 26.0581C91.2524 26.0581 90.8914 26.3972 90.8914 26.8959C90.8914 27.1286 90.9583 27.3081 91.0987 27.4411C91.2257 27.5542 91.4062 27.6339 91.6401 27.6672L91.9744 27.7137C92.1415 27.7337 92.215 27.7669 92.2885 27.8334C92.3621 27.8999 92.4022 28.0063 92.4022 28.126C92.4022 28.3986 92.1816 28.5582 91.8139 28.5582C91.5198 28.5582 91.2925 28.4917 91.0853 28.2856L90.7979 28.5715C91.0719 28.8441 91.3794 28.9438 91.8072 28.9438C92.4022 28.9438 92.8367 28.6313 92.8367 28.1127C92.8367 27.8667 92.7632 27.6672 92.6027 27.5276C92.4824 27.4278 92.3353 27.368 92.0746 27.3281ZM84.8686 15.9979L78.5917 7.979H74.6477V23.1524H78.8323V14.8276L85.3499 23.1524H89.0532V7.979H84.8686V15.9979ZM106.687 26.9225C106.687 26.4371 106.34 26.0913 105.798 26.0913H104.689V28.9372H105.123V27.7403H105.665L106.266 28.9372H106.774L106.119 27.6805C106.433 27.5874 106.687 27.3281 106.687 26.9225ZM105.123 27.368V26.477H105.765C106.052 26.477 106.253 26.6432 106.253 26.9225C106.253 27.2017 106.059 27.368 105.765 27.368H105.123ZM97.8435 28.9305H99.6684V28.5449H98.278V27.6938H99.4679V27.3081H98.278V26.477H99.6684V26.0913H97.8435V28.9305ZM96.7272 7.979L90.5372 23.2588H95.1763L98.639 13.6574L102.102 23.2588H106.828L100.651 7.979H96.7272Z" fill="#0E101F"/>
</svg>
