<svg width="325" height="82" viewBox="0 0 325 82" fill="none" xmlns="http://www.w3.org/2000/svg">
<path d="M44.2129 45.4982V50.2187L55.2625 56.7041L60.0967 53.8345V48.2817L49.9679 42.2555L44.2129 45.4982ZM155.831 60.119L154.033 56.3024H153.098V62.4434H154.033V58.3398L155.486 61.3242H156.177L157.587 58.3398V62.4434H158.522V56.3024H157.587L155.831 60.119ZM11.5964 47.9948V53.6479L16.7039 56.5176L27.4802 50.1183V45.5843L21.5381 42.3416L11.5964 47.9948ZM144.149 17.2178H135.703L122.38 50.19H132.365L139.818 29.4712L147.271 50.19H157.443L144.149 17.2178ZM139.703 56.3024L137.444 62.4434H138.437L138.854 61.2094H141.286L141.703 62.4434H142.696L140.437 56.3024H139.703ZM139.142 60.4059L140.106 57.6798L141.041 60.4059H139.142ZM0 20.7045V61.5251L36.0983 82L71.6068 61.5251V20.3458L35.8681 0L0 20.7045ZM64.0101 57.1776L36.0408 73.2906L7.61101 57.1776V25.0233L35.8537 8.70936L64.0101 24.7363V57.1776ZM126.121 60.6068L123.272 56.3024H122.424V62.4434H123.359V58.1102L126.207 62.429H127.056V56.288H126.121V60.6068ZM31.0195 14.6352V28.7251L35.8537 31.4082L40.7743 28.5386V14.7356L35.6667 12.0525L31.0195 14.6352ZM16.4306 24.1911L11.4093 27.0607V32.5274L30.9188 43.7333V65.9731L35.8393 69.1297L40.6736 66.0735V43.7333L60.1831 32.6135V27.0607L55.2625 24.0906L35.753 35.2105L16.4306 24.1911ZM107.331 42.3416C102.741 42.3416 99.5042 38.5106 99.5042 33.5891V33.4887C99.5042 28.7108 102.741 24.8367 107.331 24.8367C110.467 24.8367 112.626 26.329 114.51 28.6677L121.359 23.3876C118.453 19.3701 114.136 16.5578 107.432 16.5578C97.4899 16.5578 90.1235 24.0476 90.1235 33.5891V33.6896C90.1235 43.4607 97.677 50.6205 107.058 50.6205C114.323 50.6205 118.496 47.4926 121.603 43.2311L114.755 38.3671C112.769 40.7489 110.755 42.3416 107.331 42.3416ZM229.625 58.0959C229.625 57.0485 228.877 56.3024 227.712 56.3024H225.323V62.4434H226.258V59.8607H227.424L228.719 62.4434H229.812L228.402 59.7316C229.078 59.5307 229.625 58.9711 229.625 58.0959ZM226.258 59.0572V57.1346H227.64C228.258 57.1346 228.69 57.4933 228.69 58.0959C228.69 58.6985 228.273 59.0572 227.64 59.0572H226.258ZM268.946 57.0772C269.622 57.0772 270.04 57.5076 270.183 58.1246H271.133C270.917 56.905 270.068 56.2306 268.946 56.2306C268.299 56.2306 267.752 56.4602 267.335 56.8906C266.73 57.4933 266.745 58.1676 266.745 59.3585C266.745 60.5351 266.73 61.2238 267.335 61.8264C267.752 62.2425 268.313 62.4864 268.946 62.4864C270.054 62.4864 270.932 61.8264 271.133 60.5925H270.198C270.054 61.2094 269.622 61.6399 268.946 61.6399C268.586 61.6399 268.256 61.4964 268.04 61.2668C267.738 60.9368 267.666 60.5925 267.666 59.3585C267.666 58.1246 267.738 57.7659 268.04 57.4502C268.256 57.2206 268.586 57.0772 268.946 57.0772ZM281.909 62.429H285.837V61.5969H282.845V59.7603H285.405V58.9281H282.845V57.1346H285.837V56.3024H281.909V62.429ZM169.643 62.429H173.571V61.5969H170.579V59.7603H173.14V58.9281H170.579V57.1346H173.571V56.3024H169.643V62.429ZM254.904 62.429H255.839V56.288H254.904V62.429ZM311.706 17.2178H303.26L289.938 50.19H299.923L307.375 29.4712L314.828 50.19H325L311.706 17.2178ZM259.781 25.1668H269.637V49.9605H278.73V25.1668H288.585V17.2178H259.781V25.1668ZM245.897 29.5573C241.351 28.5242 240.229 27.8786 240.229 26.372V26.2716C240.229 25.095 241.308 24.1624 243.509 24.1624C246.415 24.1624 249.696 25.2815 252.703 27.3907L257.249 20.9771C253.681 18.1218 249.322 16.6296 243.739 16.6296C235.855 16.6296 231.021 21.0201 231.021 27.1038V27.2042C231.021 33.9335 236.416 35.8992 243.408 37.4919C247.868 38.5249 248.947 39.271 248.947 40.6198V40.7202C248.947 42.1263 247.638 42.9585 245.192 42.9585C241.394 42.9585 237.783 41.5955 234.546 39.0271L229.481 45.0677C233.51 48.6691 239.049 50.4913 244.861 50.4913C252.832 50.4913 258.141 46.5169 258.141 39.8306V39.7302C258.141 33.6322 253.451 31.2073 245.897 29.5573ZM198.174 58.9711L197.469 58.8707C197.181 58.8276 196.937 58.7272 196.778 58.5837C196.62 58.4402 196.548 58.2394 196.548 58.0098C196.548 57.4646 196.951 57.0485 197.67 57.0485C198.188 57.0485 198.634 57.1633 199.008 57.522L199.598 56.9337C199.066 56.4458 198.505 56.2306 197.685 56.2306C196.404 56.2306 195.627 56.9624 195.627 58.0241C195.627 58.5263 195.771 58.9137 196.073 59.2007C196.347 59.4446 196.735 59.6168 197.239 59.6885L197.958 59.789C198.318 59.8464 198.476 59.9038 198.634 60.0472C198.793 60.1907 198.879 60.4203 198.879 60.6929C198.879 61.2812 198.404 61.6255 197.613 61.6255C196.98 61.6255 196.491 61.4821 196.045 61.0373L195.426 61.6542C196.016 62.2425 196.678 62.4721 197.598 62.4721C198.879 62.4721 199.814 61.7977 199.814 60.6642C199.814 60.1333 199.656 59.7029 199.311 59.4016C199.052 59.2007 198.735 59.0572 198.174 58.9711ZM182.664 34.5218L169.154 17.2178H160.666V49.9605H169.672V31.9965L183.7 49.9605H191.671V17.2178H182.664V34.5218ZM208.188 17.2178L194.865 50.19H204.85L212.302 29.4712L219.755 50.19H229.927L216.633 17.2178H208.188ZM242.128 60.7647L240.718 56.3024H239.754L241.783 62.4434H242.502L244.545 56.3024H243.567L242.128 60.7647ZM210.59 62.429H214.518V61.5969H211.526V59.7603H214.087V58.9281H211.526V57.1346H214.518V56.3024H210.59V62.429Z" fill="#F4B919"/>
</svg>
