<svg id="Layer_1" data-name="Layer 1" xmlns="http://www.w3.org/2000/svg" viewBox="0 0 442.08 126.31"><defs><style>.cls-1,.cls-2{fill:#f4bb19;}.cls-2{font-size:11.78px;font-family:DIN-Regular, DIN;letter-spacing:0.62em;}</style></defs><title>web</title><polygon class="cls-1" points="61.98 28.15 56.31 31.33 56.31 48.57 62.21 51.86 68.22 48.35 68.22 31.44 61.98 28.15"/><polygon class="cls-1" points="72.42 74.9 72.42 69.11 79.46 65.14 91.82 72.52 91.82 79.32 85.92 82.84 72.42 74.9"/><polygon class="cls-1" points="44.73 65.25 52 69.22 52 74.78 38.83 82.61 32.59 79.1 32.59 72.17 44.73 65.25"/><polygon class="cls-1" points="32.37 53.23 32.37 46.53 38.49 43.01 62.09 56.52 85.92 42.9 91.94 46.53 91.94 53.34 68.11 66.95 68.11 94.3 62.21 98.05 56.19 94.19 56.19 66.95 32.37 53.23"/><path class="cls-1" d="M62.22,13.4,18.42,38.75v50l44.09,25.07,43.37-25.07V38.32Zm34.37,70L62.44,103.15,27.71,83.41V44l34.5-20L96.59,43.69Z"/><text class="cls-2" transform="translate(136.45 94.05)">BINANCE NAME SERVICE </text><path class="cls-1" d="M128.48,54.64v-.11c0-11.69,9-20.85,21.14-20.85,8.19,0,13.46,3.43,17,8.36l-8.36,6.47c-2.29-2.86-4.93-4.69-8.76-4.69-5.62,0-9.57,4.75-9.57,10.59v.12c0,6,3.95,10.71,9.57,10.71,4.18,0,6.64-1.95,9.05-4.87l8.36,6c-3.78,5.21-8.88,9-17.76,9A20.36,20.36,0,0,1,128.48,54.64Z"/><path class="cls-1" d="M210.74,74.86H198.31L189.2,49.49l-9.1,25.37H167.9l16.26-40.38h10.32Z"/><path class="cls-1" d="M214.64,34.48H225l16.5,21.19V34.48h11v40.1h-9.73l-17.13-22v22h-11Z"/><path class="cls-1" d="M299.25,74.86H286.82l-9.11-25.37L268.6,74.86H256.4l16.27-40.38H283Z"/><path class="cls-1" d="M298.68,68.62l6.19-7.39a20.64,20.64,0,0,0,13,4.81c3,0,4.59-1,4.59-2.75v-.11c0-1.66-1.32-2.58-6.76-3.84-8.54-2-15.13-4.35-15.13-12.6v-.12c0-7.44,5.9-12.83,15.53-12.83,6.82,0,12.14,1.83,16.5,5.33L327,47a20.13,20.13,0,0,0-11.23-4c-2.69,0-4,1.15-4,2.58v.12c0,1.83,1.38,2.63,6.93,3.89,9.23,2,14.95,5,14.95,12.49v.11c0,8.2-6.47,13.06-16.21,13.06C310.37,75.26,303.61,73,298.68,68.62Z"/><path class="cls-1" d="M347.72,44.22h-12V34.48h35.17v9.74h-12V74.58H347.72Z"/><path class="cls-1" d="M415.37,74.86H402.94l-9.11-25.37-9.11,25.37h-12.2l16.27-40.38H399.1Z"/></svg>