<svg width="30" height="41" viewBox="0 0 30 41" fill="none" xmlns="http://www.w3.org/2000/svg">
<path opacity="0.27" d="M23.284 26.3367C26.2251 24.1606 28.242 20.9595 28.9354 17.3672C29.6288 13.7749 28.9483 10.0532 27.0284 6.93873C25.1086 3.82429 22.0893 1.54414 18.5685 0.54969C15.0476 -0.444763 11.2817 -0.0810446 8.01621 1.56882C4.7507 3.21869 2.22351 6.03446 0.935155 9.45875C-0.353204 12.883 -0.308907 16.6662 1.05918 20.0595C2.42726 23.4527 5.01941 26.2086 8.32261 27.7816C11.6258 29.3547 15.3992 29.6302 18.8958 28.5537L24.7579 39.1807C25.0842 39.7285 25.6108 40.1279 26.2262 40.2947C26.8416 40.4615 27.4978 40.3825 28.056 40.0744C28.6142 39.7664 29.0309 39.2533 29.2179 38.6438C29.4048 38.0342 29.3474 37.3758 29.058 36.8077L23.284 26.3367ZM19.284 23.0927C19.1171 23.1421 18.9556 23.2092 18.8028 23.2927C18.7488 23.3227 18.7029 23.3617 18.6529 23.3927C17.3749 23.9784 15.9857 24.2816 14.5799 24.2817C12.1722 24.2826 9.84716 23.4039 8.04184 21.8108C6.23653 20.2177 5.07539 18.02 4.77671 15.6308C4.47803 13.2417 5.06246 10.8258 6.42002 8.83726C7.77758 6.84875 9.8147 5.42467 12.1485 4.83277C14.4824 4.24087 16.952 4.52194 19.0931 5.62312C21.2343 6.72429 22.8995 8.56969 23.7755 10.8124C24.6515 13.0551 24.6781 15.5406 23.8502 17.8015C23.0223 20.0624 21.397 21.943 19.2799 23.0897L19.284 23.0927Z" fill="white"/>
</svg>
