<svg width="178" height="178" viewBox="0 0 178 178" fill="none" xmlns="http://www.w3.org/2000/svg">
<path d="M106.8 143.389C106.8 142.078 106.279 140.82 105.352 139.893C104.425 138.965 103.167 138.444 101.856 138.444H72.1889C70.8775 138.444 69.6199 138.965 68.6926 139.893C67.7654 140.82 67.2444 142.078 67.2444 143.389C67.2444 144.7 67.7654 145.958 68.6926 146.885C69.6199 147.812 70.8775 148.333 72.1889 148.333H101.856C103.167 148.333 104.425 147.812 105.352 146.885C106.279 145.958 106.8 144.7 106.8 143.389Z" fill="#F4B919"/>
<path d="M111.448 118.667H81.7812C80.4698 118.667 79.2122 119.188 78.2849 120.115C77.3576 121.042 76.8367 122.3 76.8367 123.611C76.8367 124.922 77.3576 126.18 78.2849 127.107C79.2122 128.035 80.4698 128.556 81.7812 128.556H111.448C112.759 128.556 114.017 128.035 114.944 127.107C115.871 126.18 116.392 124.922 116.392 123.611C116.392 122.3 115.871 121.042 114.944 120.115C114.017 119.188 112.759 118.667 111.448 118.667Z" fill="#F4B919"/>
<path d="M108.778 158.222H79.1111C77.7998 158.222 76.5421 158.743 75.6149 159.67C74.6876 160.598 74.1667 161.855 74.1667 163.167C74.1667 164.478 74.6876 165.736 75.6149 166.663C76.5421 167.59 77.7998 168.111 79.1111 168.111H108.778C110.089 168.111 111.347 167.59 112.274 166.663C113.201 165.736 113.722 164.478 113.722 163.167C113.722 161.855 113.201 160.598 112.274 159.67C111.347 158.743 110.089 158.222 108.778 158.222V158.222Z" fill="#F4B919"/>
<path d="M161.683 158.222H127.072C125.761 158.222 124.503 158.743 123.576 159.67C122.649 160.598 122.128 161.855 122.128 163.167C122.128 164.478 122.649 165.736 123.576 166.663C124.503 167.59 125.761 168.111 127.072 168.111H161.683C162.995 168.111 164.252 167.59 165.18 166.663C166.107 165.736 166.628 164.478 166.628 163.167C166.628 161.855 166.107 160.598 165.18 159.67C164.252 158.743 162.995 158.222 161.683 158.222V158.222Z" fill="#F4B919"/>
<path d="M166.628 138.444H132.017C130.705 138.444 129.448 138.965 128.52 139.893C127.593 140.82 127.072 142.078 127.072 143.389C127.072 144.7 127.593 145.958 128.52 146.885C129.448 147.812 130.705 148.333 132.017 148.333H166.628C167.939 148.333 169.197 147.812 170.124 146.885C171.051 145.958 171.572 144.7 171.572 143.389C171.572 142.078 171.051 140.82 170.124 139.893C169.197 138.965 167.939 138.444 166.628 138.444Z" fill="#F4B919"/>
<path d="M166.826 128.556C165.377 111.146 160.645 94.168 152.882 78.5178C145.446 64.3754 134.731 52.2192 121.633 43.0662L133.5 16.91C133.883 16.1283 134.052 15.2595 133.991 14.3913C133.931 13.5231 133.642 12.6864 133.154 11.9656C132.704 11.3333 132.111 10.8158 131.424 10.455C130.737 10.0943 129.974 9.90034 129.198 9.88893H48.4556C47.6244 9.88687 46.8061 10.0944 46.0763 10.4923C45.3466 10.8902 44.7289 11.4657 44.2804 12.1655C43.8319 12.8654 43.5671 13.667 43.5104 14.4963C43.4537 15.3255 43.6071 16.1557 43.9562 16.91L56.0701 43.165C43.0685 52.3268 32.4266 64.4429 25.0189 78.5178C14.3884 98.2956 11.0756 122.474 10.1856 139.236C10.0399 141.689 10.404 144.147 11.2549 146.453C12.1059 148.759 13.4253 150.864 15.1301 152.635C16.9217 154.375 19.0432 155.74 21.3697 156.648C23.6963 157.557 26.181 157.991 28.6778 157.926H59.3334V148.333H28.2823C27.1633 148.33 26.0565 148.1 25.0284 147.659C24.0004 147.217 23.0721 146.572 22.2995 145.762C21.5257 144.959 20.9281 144.004 20.545 142.956C20.1618 141.909 20.0016 140.793 20.0745 139.681C20.7667 126.776 23.4862 102.202 33.7212 83.0667C40.9362 69.3563 51.6054 57.7668 64.6734 49.4445H69.6178C66.2672 54.0797 63.1803 58.8999 60.3717 63.8823C57.5112 69.1839 55.0806 74.7064 53.1034 80.3967L59.8773 84.9456C61.8786 79.0419 64.3419 73.3051 67.2445 67.7884C70.8088 61.3738 74.8585 55.2413 79.3584 49.4445H84.3028C87.6197 57.3723 89.9608 65.674 91.2745 74.1667C92.3485 80.4714 92.8779 86.8568 92.8567 93.2523L100.669 87.7639C100.451 82.7913 99.9228 77.8372 99.0867 72.9306C97.7601 64.9116 95.64 57.0443 92.7578 49.4445H96.6145L101.114 39.5556H65.3162L56.1689 19.7778H121.485L109.124 46.8239C111.243 47.9589 113.276 49.2479 115.206 50.6806C127.32 59.0387 137.256 70.178 144.18 83.1656C151.116 97.4066 155.42 112.784 156.887 128.556H166.826Z" fill="#F4B919"/>
</svg>
